<svg version="1.1" viewBox="0.0 0.0 96.0 96.0" fill="none" stroke="none" stroke-linecap="square" stroke-miterlimit="10" xmlns:xlink="http://www.w3.org/1999/xlink" xmlns="http://www.w3.org/2000/svg"><clipPath id="p.0"><path d="m0 0l96.0 0l0 96.0l-96.0 0l0 -96.0z" clip-rule="nonzero"/></clipPath><g clip-path="url(#p.0)"><path fill="#000000" fill-opacity="0.0" d="m0 0l96.0 0l0 96.0l-96.0 0z" fill-rule="evenodd"/><g filter="url(#shadowFilter-p.1)"><use xlink:href="#p.1" transform="matrix(1.0 0.0 0.0 1.0 0.0 2.0)"/></g><defs><filter id="shadowFilter-p.1" filterUnits="userSpaceOnUse"><feGaussianBlur in="SourceAlpha" stdDeviation="2.0" result="blur"/><feComponentTransfer in="blur" color-interpolation-filters="sRGB"><feFuncR type="linear" slope="0" intercept="0.0"/><feFuncG type="linear" slope="0" intercept="0.0"/><feFuncB type="linear" slope="0" intercept="0.0"/><feFuncA type="linear" slope="0.5" intercept="0"/></feComponentTransfer></filter></defs><g id="p.1"><defs><radialGradient id="p.2" gradientUnits="userSpaceOnUse" gradientTransform="matrix(7.815981835665062 0.0 0.0 7.815981835665062 0.0 0.0)" spreadMethod="pad" cx="-9.367749857805121" cy="19.80328965513783" fx="-9.367749857805121" fy="19.80328965513783" r="7.815981864929199"><stop offset="0.0" stop-color="#6fa8dc"/><stop offset="1.0" stop-color="#0b5394"/></radialGradient></defs><path fill="url(#p.2)" d="m-116.415016 111.585304l86.39371 0l0 86.3937l-86.39371 0z" fill-rule="evenodd"/></g><path fill="#eeece1" d="m-95.94069 140.99728l45.459644 0l0 14.549057l-45.459644 0z" fill-rule="evenodd"/><g filter="url(#shadowFilter-p.3)"><use xlink:href="#p.3" transform="matrix(1.0 0.0 0.0 1.0 0.0 2.0)"/></g><defs><filter id="shadowFilter-p.3" filterUnits="userSpaceOnUse"><feGaussianBlur in="SourceAlpha" stdDeviation="2.0" result="blur"/><feComponentTransfer in="blur" color-interpolation-filters="sRGB"><feFuncR type="linear" slope="0" intercept="0.0"/><feFuncG type="linear" slope="0" intercept="0.0"/><feFuncB type="linear" slope="0" intercept="0.0"/><feFuncA type="linear" slope="0.5" intercept="0"/></feComponentTransfer></filter></defs><g id="p.3"><defs><radialGradient id="p.4" gradientUnits="userSpaceOnUse" gradientTransform="matrix(7.815981835665062 0.0 0.0 7.815981835665062 0.0 0.0)" spreadMethod="pad" cx="-21.61803824245255" cy="19.803256074303444" fx="-21.61803824245255" fy="19.803256074303444" r="7.815981864929199"><stop offset="0.0" stop-color="#cfe2f3"/><stop offset="1.0" stop-color="#5696d1"/></radialGradient></defs><path fill="url(#p.4)" d="m-212.16304 111.58504l86.3937 0l0 86.39371l-86.3937 0z" fill-rule="evenodd"/></g><path fill="#0b5394" d="m-191.68872 140.99728l15.455292 0l0 -15.455292l14.549057 0l0 15.455292l15.455292 0l0 14.549057l-15.455292 0l0 15.455292l-14.549057 0l0 -15.455292l-15.455292 0z" fill-rule="evenodd"/><g filter="url(#shadowFilter-p.5)"><use xlink:href="#p.5" transform="matrix(1.0 0.0 0.0 1.0 0.0 2.0)"/></g><defs><filter id="shadowFilter-p.5" filterUnits="userSpaceOnUse"><feGaussianBlur in="SourceAlpha" stdDeviation="2.0" result="blur"/><feComponentTransfer in="blur" color-interpolation-filters="sRGB"><feFuncR type="linear" slope="0" intercept="0.0"/><feFuncG type="linear" slope="0" intercept="0.0"/><feFuncB type="linear" slope="0" intercept="0.0"/><feFuncA type="linear" slope="0.5" intercept="0"/></feComponentTransfer></filter></defs><g id="p.5"><defs><radialGradient id="p.6" gradientUnits="userSpaceOnUse" gradientTransform="matrix(7.815981835665062 0.0 0.0 7.815981835665062 0.0 0.0)" spreadMethod="pad" cx="6.040714486146869" cy="6.017987749792438" fx="6.040714486146869" fy="6.017987749792438" r="7.815981864929199"><stop offset="0.0" stop-color="#cfe2f3"/><stop offset="1.0" stop-color="#5696d1"/></radialGradient></defs><path fill="url(#p.6)" d="m4.0172644 3.8396325l86.3937 0l0 86.3937l-86.3937 0z" fill-rule="evenodd"/></g><path fill="#0b5394" d="m47.218662 15.8353405l0 0c4.04216 0 7.3189774 3.2768192 7.3189774 7.3189793c0 4.042162 -3.2768173 7.3189793 -7.3189774 7.3189793c-4.04216 0 -7.318981 -3.2768173 -7.318981 -7.3189793c0 -4.04216 3.2768211 -7.3189793 7.318981 -7.3189793zm0 48.490105c-4.04216 0 -7.318981 -3.2768173 -7.318981 -7.318981c0 -4.04216 3.2768211 -7.3189774 7.318981 -7.3189774c4.04216 0 7.3189774 3.2768173 7.3189774 7.3189774c0 4.042164 -3.2768173 7.318981 -7.3189774 7.318981zm-22.8687 -31.099438l45.737396 0l0 13.708771l-45.737396 0z" fill-rule="evenodd"/><path fill="#000000" fill-opacity="0.0" d="m4.0209975 61.451443l86.3937 0l0 28.787403l-86.3937 0z" fill-rule="evenodd"/><path fill="#0b5394" d="m30.00157 82.46822q-0.5625 0 -1.0625 -0.21875q-0.484375 -0.234375 -0.859375 -0.640625q-0.359375 -0.40625 -0.578125 -0.953125q-0.21875 -0.546875 -0.21875 -1.171875q0 -0.59375 0.21875 -1.125q0.21875 -0.53125 0.59375 -0.9375q0.375 -0.40625 0.859375 -0.625q0.5 -0.234375 1.046875 -0.234375q0.578125 0 1.03125 0.234375q0.453125 0.21875 0.765625 0.625q0.3281231 0.40625 0.4843731 0.9375q0.171875 0.53125 0.1875 1.140625q0 0.609375 -0.171875 1.15625q-0.15625 0.53125 -0.4687481 0.9375q-0.3125 0.40625 -0.78125 0.640625q-0.46875 0.234375 -1.046875 0.234375zm0.1875 -1.40625q0.421875 0 0.75 -0.1875q0.328125 -0.203125 0.53125 -0.546875q0.203125 -0.359375 0.203125 -0.796875q0 -0.453125 -0.203125 -0.796875q-0.203125 -0.359375 -0.53125 -0.5625q-0.328125 -0.203125 -0.75 -0.203125q-0.421875 0 -0.765625 0.203125q-0.328125 0.1875 -0.53125 0.546875q-0.1875 0.359375 -0.1875 0.8125q0 0.4375 0.1875 0.796875q0.203125 0.34375 0.546875 0.546875q0.34375 0.1875 0.75 0.1875zm2.218748 1.40625q-0.328125 0 -0.4843731 -0.109375q-0.15625 -0.125 -0.203125 -0.375l0 -7.390625q0 -0.203125 0.015625 -0.359375q0.03125 -0.171875 0.1875 -0.265625q0.1562481 -0.109375 0.4687481 -0.109375q0.359375 0 0.5 0.109375q0.140625 0.09375 0.171875 0.25q0.046875 0.15625 0.046875 0.359375l0 7.15625q0 0.203125 -0.03125 0.375q-0.03125 0.171875 -0.1875 0.265625q-0.140625 0.09375 -0.484375 0.09375zm2.712555 0.015625q-0.328125 0 -0.484375 -0.109375q-0.15625 -0.09375 -0.1875 -0.25q-0.03125 -0.171875 -0.03125 -0.375l0 -4.46875q0 -0.1875 0.03125 -0.34375q0.046875 -0.171875 0.1875 -0.265625q0.15625 -0.09375 0.5 -0.09375q0.328125 0 0.484375 0.09375q0.15625 0.09375 0.1875 0.265625q0.03125 0.171875 0.03125 0.375l0 4.453125q0 0.203125 -0.03125 0.359375q-0.03125 0.15625 -0.1875 0.25q-0.15625 0.109375 -0.5 0.109375zm0 -7.078125q-0.34375 0 -0.515625 -0.09375q-0.15625 -0.109375 -0.203125 -0.28125q-0.03125 -0.1875 -0.03125 -0.40625q0 -0.21875 0.03125 -0.390625q0.046875 -0.171875 0.21875 -0.265625q0.171875 -0.109375 0.515625 -0.109375q0.359375 0 0.515625 0.109375q0.15625 0.109375 0.203125 0.28125q0.046875 0.171875 0.046875 0.40625q0 0.203125 -0.046875 0.390625q-0.046875 0.171875 -0.203125 0.265625q-0.15625 0.09375 -0.53125 0.09375zm4.7022705 7.09375q-0.25 0 -0.421875 -0.09375q-0.15625 -0.078125 -0.265625 -0.265625l-2.171875 -4.5625q-0.1875 -0.359375 -0.109375 -0.578125q0.09375 -0.21875 0.4375 -0.390625q0.359375 -0.171875 0.578125 -0.109375q0.21875 0.046875 0.390625 0.4375l1.5625 3.6875l1.546875 -3.625q0.171875 -0.390625 0.390625 -0.484375q0.21875 -0.109375 0.625 0.09375q0.40625 0.203125 0.421875 0.453125q0.03125 0.25 -0.125 0.5625l-2.171875 4.515625q-0.09375 0.1875 -0.265625 0.265625q-0.171875 0.09375 -0.421875 0.09375zm4.7057953 -0.015625q-0.328125 0 -0.484375 -0.109375q-0.15625 -0.09375 -0.1875 -0.25q-0.03125 -0.171875 -0.03125 -0.375l0 -4.46875q0 -0.1875 0.03125 -0.34375q0.046875 -0.171875 0.1875 -0.265625q0.15625 -0.09375 0.5 -0.09375q0.328125 0 0.484375 0.09375q0.15625 0.09375 0.1875 0.265625q0.03125 0.171875 0.03125 0.375l0 4.453125q0 0.203125 -0.03125 0.359375q-0.03125 0.15625 -0.1875 0.25q-0.15625 0.109375 -0.5 0.109375zm0 -7.078125q-0.34375 0 -0.515625 -0.09375q-0.15625 -0.109375 -0.203125 -0.28125q-0.03125 -0.1875 -0.03125 -0.40625q0 -0.21875 0.03125 -0.390625q0.046875 -0.171875 0.21875 -0.265625q0.171875 -0.109375 0.515625 -0.109375q0.359375 0 0.515625 0.109375q0.15625 0.109375 0.203125 0.28125q0.046875 0.171875 0.046875 0.40625q0 0.203125 -0.046875 0.390625q-0.046875 0.171875 -0.203125 0.265625q-0.15625 0.09375 -0.53125 0.09375zm4.0772705 7.140625q-0.3125 0 -0.65625 -0.0625q-0.34375 -0.0625 -0.671875 -0.1875q-0.328125 -0.125 -0.5625 -0.296875q-0.234375 -0.1875 -0.296875 -0.390625q-0.046875 -0.125 -0.03125 -0.234375q0.015625 -0.125 0.078125 -0.25q0.0625 -0.125 0.171875 -0.25q0.109375 -0.140625 0.21875 -0.15625q0.125 -0.015625 0.296875 0.078125q0.15625 0.0625 0.34375 0.15625q0.1875 0.09375 0.375 0.203125q0.203125 0.09375 0.40625 0.15625q0.21875 0.046875 0.421875 0.046875q0.453125 0 0.71875 -0.140625q0.265625 -0.15625 0.265625 -0.4375q0 -0.15625 -0.09375 -0.265625q-0.078125 -0.125 -0.21875 -0.203125q-0.140625 -0.078125 -0.328125 -0.140625q-0.1875 -0.0625 -0.390625 -0.109375q-0.203125 -0.0625 -0.4375 -0.140625q-0.296875 -0.078125 -0.609375 -0.203125q-0.296875 -0.125 -0.53125 -0.3125q-0.234375 -0.1875 -0.375 -0.46875q-0.140625 -0.296875 -0.140625 -0.734375q0 -0.53125 0.25 -0.90625q0.265625 -0.390625 0.75 -0.59375q0.5 -0.203125 1.1875 -0.203125q0.25 0 0.46875 0.046875q0.21875 0.03125 0.421875 0.09375q0.21875 0.0625 0.40625 0.171875q0.203125 0.09375 0.390625 0.203125q0.296875 0.171875 0.3125 0.390625q0.015625 0.21875 -0.171875 0.484375q-0.125 0.15625 -0.265625 0.234375q-0.125 0.0625 -0.265625 0q-0.203125 -0.09375 -0.421875 -0.203125q-0.21875 -0.125 -0.453125 -0.203125q-0.234375 -0.09375 -0.484375 -0.09375q-0.234375 0 -0.4375 0.078125q-0.1875 0.078125 -0.28125 0.21875q-0.09375 0.125 -0.09375 0.296875q0 0.171875 0.09375 0.28125q0.09375 0.109375 0.25 0.1875q0.15625 0.0625 0.375 0.125q0.21875 0.046875 0.453125 0.09375q0.328125 0.0625 0.671875 0.171875q0.359375 0.109375 0.65625 0.3125q0.296875 0.1875 0.46875 0.515625q0.1875 0.3125 0.1875 0.8125q0 0.875 -0.65625 1.359375q-0.640625 0.46875 -1.765625 0.46875zm4.2267914 -0.0625q-0.328125 0 -0.484375 -0.109375q-0.15625 -0.09375 -0.1875 -0.25q-0.03125 -0.171875 -0.03125 -0.375l0 -4.46875q0 -0.1875 0.03125 -0.34375q0.046875 -0.171875 0.1875 -0.265625q0.15625 -0.09375 0.5 -0.09375q0.328125 0 0.484375 0.09375q0.15625 0.09375 0.1875 0.265625q0.03125 0.171875 0.03125 0.375l0 4.453125q0 0.203125 -0.03125 0.359375q-0.03125 0.15625 -0.1875 0.25q-0.15625 0.109375 -0.5 0.109375zm0 -7.078125q-0.34375 0 -0.515625 -0.09375q-0.15625 -0.109375 -0.203125 -0.28125q-0.03125 -0.1875 -0.03125 -0.40625q0 -0.21875 0.03125 -0.390625q0.046875 -0.171875 0.21875 -0.265625q0.171875 -0.109375 0.515625 -0.109375q0.359375 0 0.515625 0.109375q0.15625 0.109375 0.203125 0.28125q0.046875 0.171875 0.046875 0.40625q0 0.203125 -0.046875 0.390625q-0.046875 0.171875 -0.203125 0.265625q-0.15625 0.09375 -0.53125 0.09375zm4.736023 7.140625q-0.578125 0 -1.125 -0.21875q-0.546875 -0.21875 -0.984375 -0.625q-0.4375 -0.40625 -0.703125 -0.953125q-0.25 -0.5625 -0.25 -1.21875q0 -0.640625 0.234375 -1.1875q0.234375 -0.5625 0.65625 -0.96875q0.421875 -0.421875 0.96875 -0.65625q0.546875 -0.234375 1.171875 -0.234375q0.84375 0 1.515625 0.40625q0.6875 0.390625 1.09375 1.078125q0.421875 0.6875 0.421875 1.546875q0 0.6875 -0.265625 1.25q-0.25 0.546875 -0.6875 0.953125q-0.421875 0.40625 -0.953125 0.625q-0.53125 0.203125 -1.09375 0.203125zm-0.03125 -1.40625q0.390625 0 0.75 -0.203125q0.375 -0.203125 0.609375 -0.5625q0.234375 -0.375 0.234375 -0.890625q0 -0.46875 -0.21875 -0.828125q-0.203125 -0.359375 -0.5625 -0.5625q-0.359375 -0.203125 -0.828125 -0.203125q-0.4375 0 -0.796875 0.21875q-0.359375 0.203125 -0.578125 0.578125q-0.203125 0.359375 -0.203125 0.8125q0 0.5 0.21875 0.875q0.234375 0.359375 0.59375 0.5625q0.375 0.203125 0.78125 0.203125zm4.6768036 1.328125q-0.3125 0 -0.46875 -0.109375q-0.15625 -0.09375 -0.1875 -0.25q-0.03125 -0.171875 -0.03125 -0.375l0 -4.484375q0 -0.1875 0.03125 -0.34375q0.03125 -0.15625 0.1875 -0.25q0.15625 -0.09375 0.484375 -0.09375q0.28125 0 0.421875 0.078125q0.15625 0.0625 0.203125 0.171875q0.046875 0.109375 0.046875 0.21875q0.015625 0.109375 0.03125 0.171875l-0.0625 0.375q0.078125 -0.1875 0.25 -0.359375q0.171875 -0.1875 0.40625 -0.328125q0.234375 -0.15625 0.5156288 -0.25q0.28125 -0.09375 0.59375 -0.09375q0.5625 0 1.0 0.203125q0.453125 0.203125 0.765625 0.578125q0.3125 0.375 0.484375 0.890625q0.171875 0.5 0.171875 1.140625l0 2.390625q0 0.203125 -0.046875 0.375q-0.046875 0.15625 -0.1875 0.25q-0.140625 0.09375 -0.484375 0.09375q-0.34375 0 -0.5 -0.109375q-0.15625 -0.09375 -0.1875 -0.25q-0.03125 -0.171875 -0.03125 -0.375l0 -2.390625q0 -0.421875 -0.15625 -0.734375q-0.15625 -0.3125 -0.4375 -0.484375q-0.28125 -0.171875 -0.703125 -0.171875q-0.4218788 0 -0.7343788 0.171875q-0.3125 0.171875 -0.484375 0.484375q-0.171875 0.3125 -0.171875 0.734375l0 2.40625q0 0.203125 -0.03125 0.375q-0.03125 0.15625 -0.1875 0.25q-0.140625 0.09375 -0.5 0.09375z" fill-rule="nonzero"/><path fill="#000000" fill-opacity="0.0" d="m-212.16304 173.98425l86.3937 0l0 24.0l-86.3937 0z" fill-rule="evenodd"/><path fill="#0b5394" d="m-185.5055 190.198q-0.34375 0 -0.515625 -0.125q-0.171875 -0.140625 -0.171875 -0.359375l0.078125 -0.40625q-0.09375 0.15625 -0.328125 0.375q-0.21875 0.203125 -0.59375 0.375q-0.375 0.15625 -0.890625 0.15625q-0.5625 0 -1.0625 -0.234375q-0.5 -0.234375 -0.890625 -0.640625q-0.375 -0.421875 -0.59375 -0.953125q-0.21875 -0.53125 -0.21875 -1.15625q0 -0.578125 0.21875 -1.09375q0.21875 -0.53125 0.609375 -0.9375q0.390625 -0.40625 0.875 -0.640625q0.5 -0.234375 1.0625 -0.234375q0.484375 0 0.828125 0.140625q0.34375 0.125 0.578125 0.328125q0.25 0.1875 0.40625 0.40625l-0.078125 -0.34375q0 -0.265625 0.171875 -0.40625q0.171875 -0.140625 0.53125 -0.140625q0.328125 0 0.46875 0.109375q0.15625 0.09375 0.1875 0.265625q0.03125 0.171875 0.03125 0.390625l0 4.390625q0 0.203125 -0.03125 0.375q-0.03125 0.171875 -0.1875 0.265625q-0.15625 0.09375 -0.484375 0.09375zm-2.203125 -1.390625q0.40625 0 0.71875 -0.203125q0.328125 -0.203125 0.515625 -0.546875q0.203125 -0.359375 0.203125 -0.796875q0 -0.46875 -0.203125 -0.8125q-0.203125 -0.359375 -0.53125 -0.546875q-0.328125 -0.203125 -0.734375 -0.203125q-0.4375 0 -0.796875 0.21875q-0.34375 0.203125 -0.546875 0.5625q-0.1875 0.34375 -0.1875 0.796875q0 0.421875 0.203125 0.78125q0.203125 0.34375 0.546875 0.546875q0.359375 0.203125 0.8125 0.203125zm6.6561737 1.40625q-0.5625 0 -1.0625 -0.21875q-0.484375 -0.234375 -0.859375 -0.640625q-0.359375 -0.40625 -0.578125 -0.953125q-0.21875 -0.546875 -0.21875 -1.171875q0 -0.59375 0.21875 -1.125q0.21875 -0.53125 0.59375 -0.9375q0.375 -0.40625 0.859375 -0.625q0.5 -0.234375 1.046875 -0.234375q0.578125 0 1.03125 0.234375q0.453125 0.21875 0.765625 0.625q0.328125 0.40625 0.484375 0.9375q0.171875 0.53125 0.1875 1.140625q0 0.609375 -0.171875 1.15625q-0.15625 0.53125 -0.46875 0.9375q-0.3125 0.40625 -0.78125 0.640625q-0.46875 0.234375 -1.046875 0.234375zm0.1875 -1.40625q0.421875 0 0.75 -0.1875q0.328125 -0.203125 0.53125 -0.546875q0.203125 -0.359375 0.203125 -0.796875q0 -0.453125 -0.203125 -0.796875q-0.203125 -0.359375 -0.53125 -0.5625q-0.328125 -0.203125 -0.75 -0.203125q-0.421875 0 -0.765625 0.203125q-0.328125 0.1875 -0.53125 0.546875q-0.1875 0.359375 -0.1875 0.8125q0 0.4375 0.1875 0.796875q0.203125 0.34375 0.546875 0.546875q0.34375 0.1875 0.75 0.1875zm2.21875 1.40625q-0.328125 0 -0.484375 -0.109375q-0.15625 -0.125 -0.203125 -0.375l0 -7.390625q0 -0.203125 0.015625 -0.359375q0.03125 -0.171875 0.1875 -0.265625q0.15625 -0.109375 0.46875 -0.109375q0.359375 0 0.5 0.109375q0.140625 0.09375 0.171875 0.25q0.046875 0.15625 0.046875 0.359375l0 7.15625q0 0.203125 -0.03125 0.375q-0.03125 0.171875 -0.1875 0.265625q-0.140625 0.09375 -0.484375 0.09375zm4.493805 0q-0.5625 0 -1.0625 -0.21875q-0.484375 -0.234375 -0.859375 -0.640625q-0.359375 -0.40625 -0.578125 -0.953125q-0.21875 -0.546875 -0.21875 -1.171875q0 -0.59375 0.21875 -1.125q0.21875 -0.53125 0.59375 -0.9375q0.375 -0.40625 0.859375 -0.625q0.5 -0.234375 1.046875 -0.234375q0.578125 0 1.03125 0.234375q0.453125 0.21875 0.765625 0.625q0.328125 0.40625 0.484375 0.9375q0.171875 0.53125 0.1875 1.140625q0 0.609375 -0.171875 1.15625q-0.15625 0.53125 -0.46875 0.9375q-0.3125 0.40625 -0.78125 0.640625q-0.46875 0.234375 -1.046875 0.234375zm0.1875 -1.40625q0.421875 0 0.75 -0.1875q0.328125 -0.203125 0.53125 -0.546875q0.203125 -0.359375 0.203125 -0.796875q0 -0.453125 -0.203125 -0.796875q-0.203125 -0.359375 -0.53125 -0.5625q-0.328125 -0.203125 -0.75 -0.203125q-0.421875 0 -0.765625 0.203125q-0.328125 0.1875 -0.53125 0.546875q-0.1875 0.359375 -0.1875 0.8125q0 0.4375 0.1875 0.796875q0.203125 0.34375 0.546875 0.546875q0.34375 0.1875 0.75 0.1875zm2.21875 1.40625q-0.328125 0 -0.484375 -0.109375q-0.15625 -0.125 -0.203125 -0.375l0 -7.390625q0 -0.203125 0.015625 -0.359375q0.03125 -0.171875 0.1875 -0.265625q0.15625 -0.109375 0.46875 -0.109375q0.359375 0 0.5 0.109375q0.140625 0.09375 0.171875 0.25q0.046875 0.15625 0.046875 0.359375l0 7.15625q0 0.203125 -0.03125 0.375q-0.03125 0.171875 -0.1875 0.265625q-0.140625 0.09375 -0.484375 0.09375zm2.712555 0.015625q-0.328125 0 -0.484375 -0.109375q-0.15625 -0.09375 -0.1875 -0.25q-0.03125 -0.171875 -0.03125 -0.375l0 -4.46875q0 -0.1875 0.03125 -0.34375q0.046875 -0.171875 0.1875 -0.265625q0.15625 -0.09375 0.5 -0.09375q0.328125 0 0.484375 0.09375q0.15625 0.09375 0.1875 0.265625q0.03125 0.171875 0.03125 0.375l0 4.453125q0 0.203125 -0.03125 0.359375q-0.03125 0.15625 -0.1875 0.25q-0.15625 0.109375 -0.5 0.109375zm0 -7.078125q-0.34375 0 -0.515625 -0.09375q-0.15625 -0.109375 -0.203125 -0.28125q-0.03125 -0.1875 -0.03125 -0.40625q0 -0.21875 0.03125 -0.390625q0.046875 -0.171875 0.21875 -0.265625q0.171875 -0.109375 0.515625 -0.109375q0.359375 0 0.515625 0.109375q0.15625 0.109375 0.203125 0.28125q0.046875 0.171875 0.046875 0.40625q0 0.203125 -0.046875 0.390625q-0.046875 0.171875 -0.203125 0.265625q-0.15625 0.09375 -0.53125 0.09375zm4.8082733 7.078125q-0.59375 0 -1.015625 -0.125q-0.421875 -0.125 -0.6875 -0.375q-0.265625 -0.25 -0.390625 -0.640625q-0.125 -0.40625 -0.125 -0.96875l0 -5.078125q0 -0.21875 0.046875 -0.375q0.046875 -0.15625 0.1875 -0.25q0.15625 -0.09375 0.484375 -0.09375q0.328125 0 0.46875 0.109375q0.15625 0.09375 0.203125 0.25q0.046875 0.15625 0.046875 0.359375l0 5.03125q0 0.25 0.03125 0.40625q0.046875 0.15625 0.140625 0.234375q0.09375 0.078125 0.234375 0.109375q0.15625 0.03125 0.375 0.03125q0.21875 0 0.375 0.046875q0.171875 0.03125 0.25 0.171875q0.09375 0.125 0.09375 0.4375q0 0.34375 -0.109375 0.5q-0.09375 0.140625 -0.265625 0.171875q-0.15625 0.046875 -0.34375 0.046875zm-2.703125 -5.796875l1.234375 0.015625l1.65625 -0.0625q0.203125 0 0.359375 0.046875q0.171875 0.046875 0.265625 0.203125q0.09375 0.140625 0.09375 0.484375q0 0.296875 -0.09375 0.453125q-0.09375 0.15625 -0.25 0.203125q-0.15625 0.046875 -0.359375 0.046875l-1.609375 -0.03125l-1.34375 0.015625q-0.296875 -0.015625 -0.40625 -0.171875q-0.109375 -0.15625 -0.109375 -0.53125q0 -0.359375 0.125 -0.515625q0.140625 -0.15625 0.4375 -0.15625zm5.2749023 5.796875q-0.328125 0 -0.484375 -0.109375q-0.15625 -0.09375 -0.1875 -0.25q-0.03125 -0.171875 -0.03125 -0.375l0 -4.46875q0 -0.1875 0.03125 -0.34375q0.046875 -0.171875 0.1875 -0.265625q0.15625 -0.09375 0.5 -0.09375q0.328125 0 0.484375 0.09375q0.15625 0.09375 0.1875 0.265625q0.03125 0.171875 0.03125 0.375l0 4.453125q0 0.203125 -0.03125 0.359375q-0.03125 0.15625 -0.1875 0.25q-0.15625 0.109375 -0.5 0.109375zm0 -7.078125q-0.34375 0 -0.515625 -0.09375q-0.15625 -0.109375 -0.203125 -0.28125q-0.03125 -0.1875 -0.03125 -0.40625q0 -0.21875 0.03125 -0.390625q0.046875 -0.171875 0.21875 -0.265625q0.171875 -0.109375 0.515625 -0.109375q0.359375 0 0.515625 0.109375q0.15625 0.109375 0.203125 0.28125q0.046875 0.171875 0.046875 0.40625q0 0.203125 -0.046875 0.390625q-0.046875 0.171875 -0.203125 0.265625q-0.15625 0.09375 -0.53125 0.09375zm4.736023 7.140625q-0.578125 0 -1.125 -0.21875q-0.546875 -0.21875 -0.984375 -0.625q-0.4375 -0.40625 -0.703125 -0.953125q-0.25 -0.5625 -0.25 -1.21875q0 -0.640625 0.234375 -1.1875q0.234375 -0.5625 0.65625 -0.96875q0.421875 -0.421875 0.96875 -0.65625q0.546875 -0.234375 1.171875 -0.234375q0.84375 0 1.515625 0.40625q0.6875 0.390625 1.09375 1.078125q0.421875 0.6875 0.421875 1.546875q0 0.6875 -0.265625 1.25q-0.25 0.546875 -0.6875 0.953125q-0.421875 0.40625 -0.953125 0.625q-0.53125 0.203125 -1.09375 0.203125zm-0.03125 -1.40625q0.390625 0 0.75 -0.203125q0.375 -0.203125 0.609375 -0.5625q0.234375 -0.375 0.234375 -0.890625q0 -0.46875 -0.21875 -0.828125q-0.203125 -0.359375 -0.5625 -0.5625q-0.359375 -0.203125 -0.828125 -0.203125q-0.4375 0 -0.796875 0.21875q-0.359375 0.203125 -0.578125 0.578125q-0.203125 0.359375 -0.203125 0.8125q0 0.5 0.21875 0.875q0.234375 0.359375 0.59375 0.5625q0.375 0.203125 0.78125 0.203125zm4.6768036 1.328125q-0.3125 0 -0.46875 -0.109375q-0.15625 -0.09375 -0.1875 -0.25q-0.03125 -0.171875 -0.03125 -0.375l0 -4.484375q0 -0.1875 0.03125 -0.34375q0.03125 -0.15625 0.1875 -0.25q0.15625 -0.09375 0.484375 -0.09375q0.28125 0 0.421875 0.078125q0.15625 0.0625 0.203125 0.171875q0.046875 0.109375 0.046875 0.21875q0.015625 0.109375 0.03125 0.171875l-0.0625 0.375q0.078125 -0.1875 0.25 -0.359375q0.171875 -0.1875 0.40625 -0.328125q0.234375 -0.15625 0.515625 -0.25q0.28125 -0.09375 0.59375 -0.09375q0.5625 0 1.0 0.203125q0.453125 0.203125 0.76564026 0.578125q0.3125 0.375 0.484375 0.890625q0.171875 0.5 0.171875 1.140625l0 2.390625q0 0.203125 -0.046875 0.375q-0.046875 0.15625 -0.1875 0.25q-0.140625 0.09375 -0.484375 0.09375q-0.34376526 0 -0.50001526 -0.109375q-0.15625 -0.09375 -0.1875 -0.25q-0.03125 -0.171875 -0.03125 -0.375l0 -2.390625q0 -0.421875 -0.15625 -0.734375q-0.15625 -0.3125 -0.4375 -0.484375q-0.28125 -0.171875 -0.703125 -0.171875q-0.421875 0 -0.734375 0.171875q-0.3125 0.171875 -0.484375 0.484375q-0.171875 0.3125 -0.171875 0.734375l0 2.40625q0 0.203125 -0.03125 0.375q-0.03125 0.15625 -0.1875 0.25q-0.140625 0.09375 -0.5 0.09375z" fill-rule="nonzero"/><path fill="#000000" fill-opacity="0.0" d="m-116.41207 173.98425l86.3937 0l0 24.0l-86.3937 0z" fill-rule="evenodd"/><path fill="#eeece1" d="m-101.365585 190.29175q-0.3125 0 -0.65625 -0.0625q-0.34375 -0.0625 -0.671875 -0.1875q-0.328125 -0.125 -0.5625 -0.296875q-0.234375 -0.1875 -0.296875 -0.390625q-0.046875 -0.125 -0.03125 -0.234375q0.015625 -0.125 0.078125 -0.25q0.0625 -0.125 0.171875 -0.25q0.109375 -0.140625 0.21875 -0.15625q0.125 -0.015625 0.296875 0.078125q0.15625 0.0625 0.34375 0.15625q0.1875 0.09375 0.375 0.203125q0.203125 0.09375 0.40625 0.15625q0.21875 0.046875 0.421875 0.046875q0.453125 0 0.71875 -0.140625q0.265625 -0.15625 0.265625 -0.4375q0 -0.15625 -0.09375 -0.265625q-0.078125 -0.125 -0.21875 -0.203125q-0.140625 -0.078125 -0.328125 -0.140625q-0.1875 -0.0625 -0.390625 -0.109375q-0.203125 -0.0625 -0.4375 -0.140625q-0.296875 -0.078125 -0.609375 -0.203125q-0.296875 -0.125 -0.53125 -0.3125q-0.234375 -0.1875 -0.375 -0.46875q-0.140625 -0.296875 -0.140625 -0.734375q0 -0.53125 0.25 -0.90625q0.265625 -0.390625 0.75 -0.59375q0.5 -0.203125 1.1875 -0.203125q0.25 0 0.46875 0.046875q0.21875 0.03125 0.421875 0.09375q0.21875 0.0625 0.40625 0.171875q0.203125 0.09375 0.390625 0.203125q0.296875 0.171875 0.3125 0.390625q0.015625 0.21875 -0.171875 0.484375q-0.125 0.15625 -0.265625 0.234375q-0.125 0.0625 -0.265625 0q-0.203125 -0.09375 -0.421875 -0.203125q-0.21875 -0.125 -0.453125 -0.203125q-0.234375 -0.09375 -0.484375 -0.09375q-0.234375 0 -0.4375 0.078125q-0.1875 0.078125 -0.28125 0.21875q-0.09375 0.125 -0.09375 0.296875q0 0.171875 0.09375 0.28125q0.09375 0.109375 0.25 0.1875q0.15625 0.0625 0.375 0.125q0.21875 0.046875 0.453125 0.09375q0.328125 0.0625 0.671875 0.171875q0.359375 0.109375 0.65625 0.3125q0.296875 0.1875 0.46875 0.515625q0.1875 0.3125 0.1875 0.8125q0 0.875 -0.65625 1.359375q-0.640625 0.46875 -1.765625 0.46875zm5.9142914 -0.078125q-0.5625 0 -1.03125 -0.1875q-0.453125 -0.203125 -0.796875 -0.578125q-0.34375 -0.375 -0.546875 -0.890625q-0.1875 -0.515625 -0.1875 -1.140625l0 -2.390625q0 -0.203125 0.03125 -0.359375q0.046875 -0.171875 0.203125 -0.265625q0.15625 -0.09375 0.46875 -0.09375q0.359375 0 0.5 0.09375q0.15625 0.09375 0.1875 0.265625q0.03125 0.171875 0.03125 0.375l0 2.375q0 0.4375 0.15625 0.75q0.15625 0.3125 0.4375 0.484375q0.28125 0.171875 0.703125 0.171875q0.4375 0 0.734375 -0.171875q0.3125 -0.171875 0.484375 -0.484375q0.171875 -0.328125 0.171875 -0.75l0 -2.40625q0 -0.203125 0.03125 -0.359375q0.03125 -0.15625 0.1875 -0.25q0.15625 -0.09375 0.5 -0.09375q0.328125 0 0.46875 0.09375q0.15625 0.09375 0.1875 0.265625q0.046875 0.171875 0.046875 0.359375l0 4.5q0 0.1875 -0.046875 0.34375q-0.03125 0.15625 -0.1875 0.25q-0.15625 0.09375 -0.484375 0.09375q-0.234375 0 -0.375 -0.0625q-0.140625 -0.046875 -0.203125 -0.140625q-0.0625 -0.09375 -0.09375 -0.1875q-0.015625 -0.09375 -0.015625 -0.1875l0.09375 -0.328125q-0.0625 0.109375 -0.21875 0.265625q-0.140625 0.140625 -0.359375 0.296875q-0.203125 0.15625 -0.484375 0.25q-0.265625 0.09375 -0.59375 0.09375zm7.2370453 0q-0.578125 0 -1.046875 -0.234375q-0.453125 -0.234375 -0.78125 -0.640625q-0.3125 -0.40625 -0.484375 -0.9375q-0.15625 -0.546875 -0.15625 -1.15625q0.015625 -0.609375 0.171875 -1.140625q0.171875 -0.53125 0.484375 -0.9375q0.328125 -0.40625 0.78125 -0.625q0.453125 -0.234375 1.03125 -0.234375q0.5625 0 1.046875 0.234375q0.484375 0.21875 0.859375 0.625q0.375 0.40625 0.59375 0.9375q0.21875 0.53125 0.21875 1.125q0 0.625 -0.21875 1.171875q-0.21875 0.546875 -0.59375 0.953125q-0.359375 0.40625 -0.859375 0.640625q-0.484375 0.21875 -1.046875 0.21875zm-0.1875 -1.40625q0.421875 0 0.75 -0.1875q0.34375 -0.203125 0.53125 -0.546875q0.203125 -0.359375 0.203125 -0.796875q0 -0.453125 -0.203125 -0.8125q-0.1875 -0.359375 -0.53125 -0.546875q-0.328125 -0.203125 -0.75 -0.203125q-0.40625 0 -0.75 0.203125q-0.328125 0.203125 -0.53125 0.5625q-0.1875 0.34375 -0.1875 0.796875q0 0.4375 0.1875 0.796875q0.203125 0.34375 0.53125 0.546875q0.34375 0.1875 0.75 0.1875zm-2.21875 1.421875q-0.328125 0 -0.484375 -0.109375q-0.15625 -0.09375 -0.1875 -0.25q-0.03125 -0.171875 -0.03125 -0.375l0 -7.15625q0 -0.203125 0.03125 -0.359375q0.03125 -0.171875 0.1875 -0.265625q0.15625 -0.09375 0.484375 -0.09375q0.328125 0 0.46875 0.09375q0.15625 0.09375 0.1875 0.265625q0.03125 0.171875 0.03125 0.359375l0 7.390625q-0.046875 0.265625 -0.203125 0.375q-0.140625 0.125 -0.484375 0.125zm8.862061 0q-0.59375 0 -1.015625 -0.125q-0.421875 -0.125 -0.6875 -0.375q-0.265625 -0.25 -0.390625 -0.640625q-0.125 -0.40625 -0.125 -0.96875l0 -5.078125q0 -0.21875 0.046875 -0.375q0.046875 -0.15625 0.1875 -0.25q0.15625 -0.09375 0.484375 -0.09375q0.328125 0 0.46875 0.109375q0.15625 0.09375 0.203125 0.25q0.046875 0.15625 0.046875 0.359375l0 5.03125q0 0.25 0.03125 0.40625q0.046875 0.15625 0.140625 0.234375q0.09375 0.078125 0.234375 0.109375q0.15625 0.03125 0.375 0.03125q0.21875 0 0.375 0.046875q0.171875 0.03125 0.25 0.171875q0.09375 0.125 0.09375 0.4375q0 0.34375 -0.109375 0.5q-0.09375 0.140625 -0.265625 0.171875q-0.15625 0.046875 -0.34375 0.046875zm-2.703125 -5.796875l1.234375 0.015625l1.65625 -0.0625q0.203125 0 0.359375 0.046875q0.171875 0.046875 0.265625 0.203125q0.09375 0.140625 0.09375 0.484375q0 0.296875 -0.09375 0.453125q-0.09375 0.15625 -0.25 0.203125q-0.15625 0.046875 -0.359375 0.046875l-1.609375 -0.03125l-1.34375 0.015625q-0.296875 -0.015625 -0.40625 -0.171875q-0.109375 -0.15625 -0.109375 -0.53125q0 -0.359375 0.125 -0.515625q0.140625 -0.15625 0.4375 -0.15625zm5.2124023 5.796875q-0.3125 0 -0.46875 -0.109375q-0.15625 -0.09375 -0.1875 -0.265625q-0.03125 -0.171875 -0.03125 -0.375l0 -4.453125q0 -0.21875 0.03125 -0.375q0.03125 -0.15625 0.1875 -0.25q0.15625 -0.09375 0.484375 -0.09375q0.328125 0 0.46875 0.09375q0.15625 0.078125 0.1875 0.203125q0.046875 0.125 0.046875 0.25l-0.09375 0.203125q0.0625 -0.09375 0.171875 -0.21875q0.109375 -0.140625 0.28125 -0.28125q0.1875 -0.140625 0.4375 -0.234375q0.25 -0.09375 0.59375 -0.09375q0.15625 0 0.3125 0.03125q0.15625 0.03125 0.3125 0.09375q0.171875 0.046875 0.296875 0.140625q0.140625 0.078125 0.203125 0.203125q0.078125 0.109375 0.078125 0.25q0 0.375 -0.1875 0.640625q-0.1875 0.265625 -0.453125 0.265625q-0.1875 0 -0.28125 -0.03125q-0.078125 -0.03125 -0.125 -0.078125q-0.046875 -0.0625 -0.15625 -0.09375q-0.09375 -0.03125 -0.3125 -0.03125q-0.1875 0 -0.375 0.0625q-0.1875 0.046875 -0.34375 0.171875q-0.15625 0.125 -0.25 0.3125q-0.09375 0.1875 -0.09375 0.421875l0 2.921875q0 0.203125 -0.046875 0.359375q-0.03125 0.15625 -0.1875 0.25q-0.140625 0.109375 -0.5 0.109375zm8.718796 -0.03125q-0.34375 0 -0.515625 -0.125q-0.171875 -0.140625 -0.171875 -0.359375l0.078125 -0.40625q-0.09375 0.15625 -0.328125 0.375q-0.21875 0.203125 -0.59375 0.375q-0.375 0.15625 -0.890625 0.15625q-0.5625 0 -1.0625 -0.234375q-0.5 -0.234375 -0.890625 -0.640625q-0.375 -0.421875 -0.59375 -0.953125q-0.21875 -0.53125 -0.21875 -1.15625q0 -0.578125 0.21875 -1.09375q0.21875 -0.53125 0.609375 -0.9375q0.390625 -0.40625 0.875 -0.640625q0.5 -0.234375 1.0625 -0.234375q0.484375 0 0.828125 0.140625q0.34375 0.125 0.578125 0.328125q0.25 0.1875 0.40625 0.40625l-0.078125 -0.34375q0 -0.265625 0.171875 -0.40625q0.171875 -0.140625 0.53125 -0.140625q0.328125 0 0.46875 0.109375q0.15625 0.09375 0.1875 0.265625q0.03125 0.171875 0.03125 0.390625l0 4.390625q0 0.203125 -0.03125 0.375q-0.03125 0.171875 -0.1875 0.265625q-0.15625 0.09375 -0.484375 0.09375zm-2.203125 -1.390625q0.40625 0 0.71875 -0.203125q0.328125 -0.203125 0.515625 -0.546875q0.203125 -0.359375 0.203125 -0.796875q0 -0.46875 -0.203125 -0.8125q-0.203125 -0.359375 -0.53125 -0.546875q-0.328125 -0.203125 -0.734375 -0.203125q-0.4375 0 -0.796875 0.21875q-0.34375 0.203125 -0.546875 0.5625q-0.1875 0.34375 -0.1875 0.796875q0 0.421875 0.203125 0.78125q0.203125 0.34375 0.546875 0.546875q0.359375 0.203125 0.8125 0.203125zm6.9686737 1.4375q-0.578125 0 -1.125 -0.1875q-0.546875 -0.203125 -0.984375 -0.578125q-0.4375 -0.390625 -0.703125 -0.953125q-0.25 -0.5625 -0.25 -1.265625q0 -0.703125 0.25 -1.25q0.265625 -0.5625 0.6875 -0.9375q0.4375 -0.390625 0.96875 -0.59375q0.546875 -0.203125 1.125 -0.203125q0.421875 0 0.796875 0.125q0.375 0.109375 0.65625 0.28125q0.28125 0.171875 0.390625 0.328125q0.15625 0.15625 0.265625 0.28125q0.109375 0.125 0.078125 0.328125q-0.03125 0.109375 -0.109375 0.21875q-0.078125 0.109375 -0.171875 0.203125q-0.296875 0.328125 -0.578125 0.25q-0.15625 -0.09375 -0.3125 -0.1875q-0.15625 -0.09375 -0.3125 -0.171875q-0.15625 -0.09375 -0.328125 -0.15625q-0.171875 -0.0625 -0.375 -0.0625q-0.453125 0 -0.8125 0.203125q-0.34375 0.1875 -0.546875 0.546875q-0.203125 0.34375 -0.203125 0.796875q0 0.453125 0.203125 0.8125q0.203125 0.34375 0.546875 0.546875q0.34375 0.203125 0.796875 0.203125q0.203125 0 0.40625 -0.046875q0.203125 -0.0625 0.359375 -0.15625q0.15625 -0.09375 0.25 -0.1875q0.125 -0.078125 0.234375 -0.140625q0.109375 -0.078125 0.234375 -0.078125q0.140625 0 0.28125 0.109375q0.140625 0.09375 0.3125 0.3125q0.140625 0.171875 0.15625 0.34375q0.03125 0.171875 -0.0625 0.328125q-0.09375 0.15625 -0.296875 0.28125q-0.140625 0.140625 -0.421875 0.296875q-0.28125 0.140625 -0.65625 0.25q-0.359375 0.109375 -0.75 0.109375zm6.0265503 -0.015625q-0.59375 0 -1.015625 -0.125q-0.421875 -0.125 -0.6875 -0.375q-0.265625 -0.25 -0.390625 -0.640625q-0.125 -0.40625 -0.125 -0.96875l0 -5.078125q0 -0.21875 0.046875 -0.375q0.046875 -0.15625 0.1875 -0.25q0.15625 -0.09375 0.484375 -0.09375q0.328125 0 0.46875 0.109375q0.15625 0.09375 0.203125 0.25q0.046875 0.15625 0.046875 0.359375l0 5.03125q0 0.25 0.03125 0.40625q0.046875 0.15625 0.140625 0.234375q0.09375 0.078125 0.234375 0.109375q0.15625 0.03125 0.375 0.03125q0.21875 0 0.375 0.046875q0.171875 0.03125 0.25 0.171875q0.09375 0.125 0.09375 0.4375q0 0.34375 -0.109375 0.5q-0.09375 0.140625 -0.265625 0.171875q-0.15625 0.046875 -0.34375 0.046875zm-2.703125 -5.796875l1.234375 0.015625l1.65625 -0.0625q0.203125 0 0.359375 0.046875q0.171875 0.046875 0.265625 0.203125q0.09375 0.140625 0.09375 0.484375q0 0.296875 -0.09375 0.453125q-0.09375 0.15625 -0.25 0.203125q-0.15625 0.046875 -0.359375 0.046875l-1.609375 -0.03125l-1.34375 0.015625q-0.296875 -0.015625 -0.40625 -0.171875q-0.109375 -0.15625 -0.109375 -0.53125q0 -0.359375 0.125 -0.515625q0.140625 -0.15625 0.4375 -0.15625zm5.2749023 5.796875q-0.328125 0 -0.484375 -0.109375q-0.15625 -0.09375 -0.1875 -0.25q-0.03125 -0.171875 -0.03125 -0.375l0 -4.46875q0 -0.1875 0.03125 -0.34375q0.046875 -0.171875 0.1875 -0.265625q0.15625 -0.09375 0.5 -0.09375q0.328125 0 0.484375 0.09375q0.15625 0.09375 0.1875 0.265625q0.03125 0.171875 0.03125 0.375l0 4.453125q0 0.203125 -0.03125 0.359375q-0.03125 0.15625 -0.1875 0.25q-0.15625 0.109375 -0.5 0.109375zm0 -7.078125q-0.34375 0 -0.515625 -0.09375q-0.15625 -0.109375 -0.203125 -0.28125q-0.03125 -0.1875 -0.03125 -0.40625q0 -0.21875 0.03125 -0.390625q0.046875 -0.171875 0.21875 -0.265625q0.171875 -0.109375 0.515625 -0.109375q0.359375 0 0.515625 0.109375q0.15625 0.109375 0.203125 0.28125q0.046875 0.171875 0.046875 0.40625q0 0.203125 -0.046875 0.390625q-0.046875 0.171875 -0.203125 0.265625q-0.15625 0.09375 -0.53125 0.09375zm4.736023 7.140625q-0.578125 0 -1.125 -0.21875q-0.546875 -0.21875 -0.984375 -0.625q-0.4375 -0.40625 -0.703125 -0.953125q-0.25 -0.5625 -0.25 -1.21875q0 -0.640625 0.234375 -1.1875q0.234375 -0.5625 0.65625 -0.96875q0.421875 -0.421875 0.96875 -0.65625q0.546875 -0.234375 1.171875 -0.234375q0.8437538 0 1.5156288 0.40625q0.6875 0.390625 1.09375 1.078125q0.421875 0.6875 0.421875 1.546875q0 0.6875 -0.265625 1.25q-0.25 0.546875 -0.6875 0.953125q-0.421875 0.40625 -0.953125 0.625q-0.53125 0.203125 -1.0937538 0.203125zm-0.03125 -1.40625q0.3906288 0 0.7500038 -0.203125q0.375 -0.203125 0.609375 -0.5625q0.234375 -0.375 0.234375 -0.890625q0 -0.46875 -0.21875 -0.828125q-0.203125 -0.359375 -0.5625 -0.5625q-0.359375 -0.203125 -0.8281288 -0.203125q-0.4375 0 -0.796875 0.21875q-0.359375 0.203125 -0.578125 0.578125q-0.203125 0.359375 -0.203125 0.8125q0 0.5 0.21875 0.875q0.234375 0.359375 0.59375 0.5625q0.375 0.203125 0.78125 0.203125zm4.6768074 1.328125q-0.3125 0 -0.46875 -0.109375q-0.15625 -0.09375 -0.1875 -0.25q-0.03125 -0.171875 -0.03125 -0.375l0 -4.484375q0 -0.1875 0.03125 -0.34375q0.03125 -0.15625 0.1875 -0.25q0.15625 -0.09375 0.484375 -0.09375q0.28125 0 0.421875 0.078125q0.15625 0.0625 0.203125 0.171875q0.046875 0.109375 0.046875 0.21875q0.015625 0.109375 0.03125 0.171875l-0.0625 0.375q0.078125 -0.1875 0.25 -0.359375q0.171875 -0.1875 0.40625 -0.328125q0.234375 -0.15625 0.515625 -0.25q0.28125 -0.09375 0.59375 -0.09375q0.5625 0 1.0 0.203125q0.453125 0.203125 0.765625 0.578125q0.3125 0.375 0.484375 0.890625q0.171875 0.5 0.171875 1.140625l0 2.390625q0 0.203125 -0.046875 0.375q-0.046875 0.15625 -0.1875 0.25q-0.140625 0.09375 -0.484375 0.09375q-0.34375 0 -0.5 -0.109375q-0.15625 -0.09375 -0.1875 -0.25q-0.03125 -0.171875 -0.03125 -0.375l0 -2.390625q0 -0.421875 -0.15625 -0.734375q-0.15625 -0.3125 -0.4375 -0.484375q-0.28125 -0.171875 -0.703125 -0.171875q-0.421875 0 -0.734375 0.171875q-0.3125 0.171875 -0.484375 0.484375q-0.171875 0.3125 -0.171875 0.734375l0 2.40625q0 0.203125 -0.03125 0.375q-0.03125 0.15625 -0.1875 0.25q-0.140625 0.09375 -0.5 0.09375z" fill-rule="nonzero"/><g filter="url(#shadowFilter-p.7)"><use xlink:href="#p.7" transform="matrix(1.0 0.0 0.0 1.0 0.0 2.0)"/></g><defs><filter id="shadowFilter-p.7" filterUnits="userSpaceOnUse"><feGaussianBlur in="SourceAlpha" stdDeviation="2.0" result="blur"/><feComponentTransfer in="blur" color-interpolation-filters="sRGB"><feFuncR type="linear" slope="0" intercept="0.0"/><feFuncG type="linear" slope="0" intercept="0.0"/><feFuncB type="linear" slope="0" intercept="0.0"/><feFuncA type="linear" slope="0.5" intercept="0"/></feComponentTransfer></filter></defs><g id="p.7"><defs><radialGradient id="p.8" gradientUnits="userSpaceOnUse" gradientTransform="matrix(7.815981835665062 0.0 0.0 7.815981835665062 0.0 0.0)" spreadMethod="pad" cx="-21.618139757314903" cy="7.573821387810803" fx="-21.618139757314903" fy="7.573821387810803" r="7.815981864929199"><stop offset="0.0" stop-color="#6fa8dc"/><stop offset="1.0" stop-color="#0b5394"/></radialGradient></defs><path fill="url(#p.8)" d="m-212.16383 16.0l86.3937 0l0 86.3937l-86.3937 0z" fill-rule="evenodd"/><a xlink:href="#slide=id.g7a4e75f9cd_0_34" target="_blank" rel="noreferrer"><path fill="transparent" fill-opacity="0" d="m-212.16383 16.0l86.3937 0l0 86.3937l-86.3937 0z" fill-rule="evenodd"/></a></g><path fill="#eeece1" d="m-191.47621 40.645393l10.916321 -10.916319l11.596191 11.596178l11.596176 -11.596178l10.916321 10.916319l-11.596176 11.59618l11.596176 11.59618l-10.916321 10.916321l-11.596176 -11.59618l-11.596191 11.59618l-10.916321 -10.916321l11.596176 -11.59618z" fill-rule="evenodd"/><a xlink:href="#slide=id.g7a4e75f9cd_0_34" target="_blank" rel="noreferrer"><path fill="transparent" fill-opacity="0" d="m-191.47621 40.645393l10.916321 -10.916319l11.596191 11.596178l11.596176 -11.596178l10.916321 10.916319l-11.596176 11.59618l11.596176 11.59618l-10.916321 10.916321l-11.596176 -11.59618l-11.596191 11.59618l-10.916321 -10.916321l11.596176 -11.59618z" fill-rule="evenodd"/></a><path fill="#000000" fill-opacity="0.0" d="m-211.80315 73.61155l86.3937 0l0 28.7874l-86.3937 0z" fill-rule="evenodd"/><path fill="#eeece1" d="m-204.05605 94.62833q-0.3125 0 -0.46875 -0.09375q-0.140625 -0.09375 -0.1875 -0.265625q-0.03125 -0.171875 -0.03125 -0.359375l0 -4.484375q0 -0.203125 0.03125 -0.359375q0.046875 -0.15625 0.203125 -0.25q0.15625 -0.09375 0.484375 -0.09375q0.34375 0 0.5 0.140625q0.171875 0.140625 0.171875 0.453125l-0.109375 0.34375q0.0625 -0.125 0.203125 -0.28125q0.140625 -0.15625 0.34375 -0.3125q0.21875 -0.15625 0.484375 -0.25q0.265625 -0.109375 0.546875 -0.109375q0.40625 0 0.734375 0.140625q0.328125 0.125 0.578125 0.375q0.265625 0.25 0.453125 0.609375q0.203125 -0.296875 0.453125 -0.5625q0.265625 -0.265625 0.59375 -0.40625q0.34375 -0.15625 0.765625 -0.15625q0.6875 0 1.15625 0.359375q0.484375 0.34375 0.71875 0.984375q0.25 0.640625 0.25 1.53125l0 2.328125q0 0.203125 -0.046875 0.375q-0.03125 0.15625 -0.1875 0.25q-0.140625 0.09375 -0.484375 0.09375q-0.328125 0 -0.484375 -0.109375q-0.15625 -0.09375 -0.203125 -0.25q-0.03125 -0.171875 -0.03125 -0.375l0 -2.328125q0 -0.4375 -0.109375 -0.765625q-0.109375 -0.328125 -0.328125 -0.5q-0.203125 -0.1875 -0.53125 -0.1875q-0.359375 0 -0.625 0.171875q-0.25 0.171875 -0.40625 0.5q-0.140625 0.328125 -0.140625 0.796875l0 2.34375q0 0.203125 -0.0625 0.375q-0.046875 0.171875 -0.234375 0.25q-0.171875 0.09375 -0.484375 0.078125q-0.296875 -0.015625 -0.4375 -0.125q-0.140625 -0.109375 -0.171875 -0.265625q-0.03125 -0.15625 -0.03125 -0.34375l0 -2.328125q0 -0.4375 -0.109375 -0.765625q-0.109375 -0.34375 -0.328125 -0.515625q-0.203125 -0.171875 -0.546875 -0.171875q-0.375 0 -0.640625 0.203125q-0.25 0.1875 -0.390625 0.515625q-0.125 0.3125 -0.125 0.734375l0 2.359375q0 0.1875 -0.046875 0.359375q-0.03125 0.15625 -0.1875 0.25q-0.140625 0.09375 -0.5 0.09375zm11.533691 0q-0.5625 0 -1.03125 -0.1875q-0.453125 -0.203125 -0.796875 -0.578125q-0.34375 -0.375 -0.546875 -0.890625q-0.1875 -0.515625 -0.1875 -1.140625l0 -2.390625q0 -0.203125 0.03125 -0.359375q0.046875 -0.171875 0.203125 -0.265625q0.15625 -0.09375 0.46875 -0.09375q0.359375 0 0.5 0.09375q0.15625 0.09375 0.1875 0.265625q0.03125 0.171875 0.03125 0.375l0 2.375q0 0.4375 0.15625 0.75q0.15625 0.3125 0.4375 0.484375q0.28125 0.171875 0.703125 0.171875q0.4375 0 0.734375 -0.171875q0.3125 -0.171875 0.484375 -0.484375q0.171875 -0.328125 0.171875 -0.75l0 -2.40625q0 -0.203125 0.03125 -0.359375q0.03125 -0.15625 0.1875 -0.25q0.15625 -0.09375 0.5 -0.09375q0.328125 0 0.46875 0.09375q0.15625 0.09375 0.1875 0.265625q0.046875 0.171875 0.046875 0.359375l0 4.5q0 0.1875 -0.046875 0.34375q-0.03125 0.15625 -0.1875 0.25q-0.15625 0.09375 -0.484375 0.09375q-0.234375 0 -0.375 -0.0625q-0.140625 -0.046875 -0.203125 -0.140625q-0.0625 -0.09375 -0.09375 -0.1875q-0.015625 -0.09375 -0.015625 -0.1875l0.09375 -0.328125q-0.0625 0.109375 -0.21875 0.265625q-0.140625 0.140625 -0.359375 0.296875q-0.203125 0.15625 -0.484375 0.25q-0.265625 0.09375 -0.59375 0.09375zm6.2214203 0.015625q-0.4375 0 -0.78125 -0.0625q-0.34375 -0.0625 -0.59375 -0.203125q-0.25 -0.140625 -0.40625 -0.390625q-0.15625 -0.25 -0.234375 -0.609375q-0.078125 -0.359375 -0.078125 -0.859375l0 -5.78125q0 -0.203125 0.046875 -0.359375q0.046875 -0.171875 0.1875 -0.265625q0.15625 -0.109375 0.484375 -0.109375q0.34375 0 0.484375 0.09375q0.15625 0.09375 0.203125 0.265625q0.046875 0.15625 0.046875 0.359375l0 5.734375q0 0.21875 0.015625 0.375q0.03125 0.15625 0.109375 0.25q0.078125 0.078125 0.203125 0.125q0.140625 0.03125 0.3125 0.03125q0.15625 0 0.28125 0.03125q0.125 0.03125 0.203125 0.1875q0.078125 0.140625 0.078125 0.46875q0 0.328125 -0.078125 0.484375q-0.078125 0.15625 -0.21875 0.1875q-0.125 0.046875 -0.265625 0.046875zm3.871399 0q-0.59375 0 -1.015625 -0.125q-0.421875 -0.125 -0.6875 -0.375q-0.265625 -0.25 -0.390625 -0.640625q-0.125 -0.40625 -0.125 -0.96875l0 -5.078125q0 -0.21875 0.046875 -0.375q0.046875 -0.15625 0.1875 -0.25q0.15625 -0.09375 0.484375 -0.09375q0.328125 0 0.46875 0.109375q0.15625 0.09375 0.203125 0.25q0.046875 0.15625 0.046875 0.359375l0 5.03125q0 0.25 0.03125 0.40625q0.046875 0.15625 0.140625 0.234375q0.09375 0.078125 0.234375 0.109375q0.15625 0.03125 0.375 0.03125q0.21875 0 0.375 0.046875q0.171875 0.03125 0.25 0.171875q0.09375 0.125 0.09375 0.4375q0 0.34375 -0.109375 0.5q-0.09375 0.140625 -0.265625 0.171875q-0.15625 0.046875 -0.34375 0.046875zm-2.703125 -5.796875l1.234375 0.015625l1.65625 -0.0625q0.203125 0 0.359375 0.046875q0.171875 0.046875 0.265625 0.203125q0.09375 0.140625 0.09375 0.484375q0 0.296875 -0.09375 0.453125q-0.09375 0.15625 -0.25 0.203125q-0.15625 0.046875 -0.359375 0.046875l-1.609375 -0.03125l-1.34375 0.015625q-0.296875 -0.015625 -0.40625 -0.171875q-0.109375 -0.15625 -0.109375 -0.53125q0 -0.359375 0.125 -0.515625q0.140625 -0.15625 0.4375 -0.15625zm5.2749023 5.796875q-0.328125 0 -0.484375 -0.109375q-0.15625 -0.09375 -0.1875 -0.25q-0.03125 -0.171875 -0.03125 -0.375l0 -4.46875q0 -0.1875 0.03125 -0.34375q0.046875 -0.171875 0.1875 -0.265625q0.15625 -0.09375 0.5 -0.09375q0.328125 0 0.484375 0.09375q0.15625 0.09375 0.1875 0.265625q0.03125 0.171875 0.03125 0.375l0 4.453125q0 0.203125 -0.03125 0.359375q-0.03125 0.15625 -0.1875 0.25q-0.15625 0.109375 -0.5 0.109375zm0 -7.078125q-0.34375 0 -0.515625 -0.09375q-0.15625 -0.109375 -0.203125 -0.28125q-0.03125 -0.1875 -0.03125 -0.40625q0 -0.21875 0.03125 -0.390625q0.046875 -0.171875 0.21875 -0.265625q0.171875 -0.109375 0.515625 -0.109375q0.359375 0 0.515625 0.109375q0.15625 0.109375 0.203125 0.28125q0.046875 0.171875 0.046875 0.40625q0 0.203125 -0.046875 0.390625q-0.046875 0.171875 -0.203125 0.265625q-0.15625 0.09375 -0.53125 0.09375zm5.0616455 6.984375q-0.578125 0 -1.046875 -0.21875q-0.46875 -0.21875 -0.78125 -0.625q-0.3125 -0.40625 -0.484375 -0.921875q-0.15625 -0.53125 -0.15625 -1.140625q0.015625 -0.609375 0.171875 -1.140625q0.171875 -0.546875 0.484375 -0.9375q0.328125 -0.40625 0.78125 -0.625q0.453125 -0.234375 1.03125 -0.234375q0.5625 0 1.046875 0.234375q0.484375 0.21875 0.859375 0.640625q0.375 0.40625 0.59375 0.9375q0.21875 0.53125 0.21875 1.140625q0 0.625 -0.21875 1.15625q-0.21875 0.53125 -0.59375 0.921875q-0.359375 0.390625 -0.859375 0.609375q-0.484375 0.203125 -1.046875 0.203125zm-2.390625 2.5q-0.328125 0 -0.484375 -0.09375q-0.15625 -0.09375 -0.203125 -0.25q-0.03125 -0.15625 -0.03125 -0.359375l0 -6.90625q0 -0.203125 0.03125 -0.359375q0.046875 -0.15625 0.1875 -0.25q0.15625 -0.109375 0.484375 -0.109375q0.3125 0 0.484375 0.09375q0.1875 0.09375 0.25 0.328125l0 7.1875q0 0.203125 -0.046875 0.359375q-0.03125 0.171875 -0.1875 0.265625q-0.15625 0.09375 -0.484375 0.09375zm2.203125 -3.84375q0.421875 0 0.75 -0.1875q0.34375 -0.203125 0.53125 -0.546875q0.203125 -0.359375 0.203125 -0.8125q0 -0.453125 -0.203125 -0.796875q-0.1875 -0.359375 -0.53125 -0.546875q-0.328125 -0.203125 -0.75 -0.203125q-0.40625 0 -0.75 0.203125q-0.328125 0.203125 -0.53125 0.546875q-0.203125 0.34375 -0.203125 0.796875q0 0.453125 0.203125 0.8125q0.203125 0.34375 0.53125 0.546875q0.34375 0.1875 0.75 0.1875zm5.9747925 1.4375q-0.4375 0 -0.78125 -0.0625q-0.34375 -0.0625 -0.59375 -0.203125q-0.25 -0.140625 -0.40625 -0.390625q-0.15625 -0.25 -0.234375 -0.609375q-0.078125 -0.359375 -0.078125 -0.859375l0 -5.78125q0 -0.203125 0.046875 -0.359375q0.046875 -0.171875 0.1875 -0.265625q0.15625 -0.109375 0.484375 -0.109375q0.34375 0 0.484375 0.09375q0.15625 0.09375 0.203125 0.265625q0.046875 0.15625 0.046875 0.359375l0 5.734375q0 0.21875 0.015625 0.375q0.03125 0.15625 0.109375 0.25q0.078125 0.078125 0.203125 0.125q0.140625 0.03125 0.3125 0.03125q0.15625 0 0.28125 0.03125q0.125 0.03125 0.203125 0.1875q0.078125 0.140625 0.078125 0.46875q0 0.328125 -0.078125 0.484375q-0.078125 0.15625 -0.21875 0.1875q-0.125 0.046875 -0.265625 0.046875zm2.1951447 0q-0.328125 0 -0.484375 -0.109375q-0.15625 -0.09375 -0.1875 -0.25q-0.03125 -0.171875 -0.03125 -0.375l0 -4.46875q0 -0.1875 0.03125 -0.34375q0.046875 -0.171875 0.1875 -0.265625q0.15625 -0.09375 0.5 -0.09375q0.328125 0 0.484375 0.09375q0.15625 0.09375 0.1875 0.265625q0.03125 0.171875 0.03125 0.375l0 4.453125q0 0.203125 -0.03125 0.359375q-0.03125 0.15625 -0.1875 0.25q-0.15625 0.109375 -0.5 0.109375zm0 -7.078125q-0.34375 0 -0.515625 -0.09375q-0.15625 -0.109375 -0.203125 -0.28125q-0.03125 -0.1875 -0.03125 -0.40625q0 -0.21875 0.03125 -0.390625q0.046875 -0.171875 0.21875 -0.265625q0.171875 -0.109375 0.515625 -0.109375q0.359375 0 0.515625 0.109375q0.15625 0.109375 0.203125 0.28125q0.046875 0.171875 0.046875 0.40625q0 0.203125 -0.046875 0.390625q-0.046875 0.171875 -0.203125 0.265625q-0.15625 0.09375 -0.53125 0.09375zm4.649765 7.09375q-0.578125 0 -1.125 -0.1875q-0.546875 -0.203125 -0.984375 -0.578125q-0.4375 -0.390625 -0.703125 -0.953125q-0.25 -0.5625 -0.25 -1.265625q0 -0.703125 0.25 -1.25q0.265625 -0.5625 0.6875 -0.9375q0.4375 -0.390625 0.96875 -0.59375q0.546875 -0.203125 1.125 -0.203125q0.421875 0 0.796875 0.125q0.375 0.109375 0.65625 0.28125q0.28125 0.171875 0.390625 0.328125q0.15625 0.15625 0.265625 0.28125q0.109375 0.125 0.078125 0.328125q-0.03125 0.109375 -0.109375 0.21875q-0.078125 0.109375 -0.171875 0.203125q-0.296875 0.328125 -0.578125 0.25q-0.15625 -0.09375 -0.3125 -0.1875q-0.15625 -0.09375 -0.3125 -0.171875q-0.15625 -0.09375 -0.328125 -0.15625q-0.171875 -0.0625 -0.375 -0.0625q-0.453125 0 -0.8125 0.203125q-0.34375 0.1875 -0.546875 0.546875q-0.203125 0.34375 -0.203125 0.796875q0 0.453125 0.203125 0.8125q0.203125 0.34375 0.546875 0.546875q0.34375 0.203125 0.796875 0.203125q0.203125 0 0.40625 -0.046875q0.203125 -0.0625 0.359375 -0.15625q0.15625 -0.09375 0.25 -0.1875q0.125 -0.078125 0.234375 -0.140625q0.109375 -0.078125 0.234375 -0.078125q0.140625 0 0.28125 0.109375q0.140625 0.09375 0.3125 0.3125q0.140625 0.171875 0.15625 0.34375q0.03125 0.171875 -0.0625 0.328125q-0.09375 0.15625 -0.296875 0.28125q-0.140625 0.140625 -0.421875 0.296875q-0.28125 0.140625 -0.65625 0.25q-0.359375 0.109375 -0.75 0.109375zm8.146545 -0.046875q-0.34375 0 -0.515625 -0.125q-0.171875 -0.140625 -0.171875 -0.359375l0.078125 -0.40625q-0.09375 0.15625 -0.328125 0.375q-0.21875 0.203125 -0.59375 0.375q-0.375 0.15625 -0.890625 0.15625q-0.5625 0 -1.0625 -0.234375q-0.5 -0.234375 -0.890625 -0.640625q-0.375 -0.421875 -0.59375 -0.953125q-0.21875 -0.53125 -0.21875 -1.15625q0 -0.578125 0.21875 -1.09375q0.21875 -0.53125 0.609375 -0.9375q0.390625 -0.40625 0.875 -0.640625q0.5 -0.234375 1.0625 -0.234375q0.484375 0 0.828125 0.140625q0.34375 0.125 0.578125 0.328125q0.25 0.1875 0.40625 0.40625l-0.078125 -0.34375q0 -0.265625 0.171875 -0.40625q0.171875 -0.140625 0.53125 -0.140625q0.328125 0 0.46875 0.109375q0.15625 0.09375 0.1875 0.265625q0.03125 0.171875 0.03125 0.390625l0 4.390625q0 0.203125 -0.03125 0.375q-0.03125 0.171875 -0.1875 0.265625q-0.15625 0.09375 -0.484375 0.09375zm-2.203125 -1.390625q0.40625 0 0.71875 -0.203125q0.328125 -0.203125 0.515625 -0.546875q0.203125 -0.359375 0.203125 -0.796875q0 -0.46875 -0.203125 -0.8125q-0.203125 -0.359375 -0.53125 -0.546875q-0.328125 -0.203125 -0.734375 -0.203125q-0.4375 0 -0.796875 0.21875q-0.34375 0.203125 -0.546875 0.5625q-0.1875 0.34375 -0.1875 0.796875q0 0.421875 0.203125 0.78125q0.203125 0.34375 0.546875 0.546875q0.359375 0.203125 0.8125 0.203125zm7.0311737 1.421875q-0.59375 0 -1.015625 -0.125q-0.421875 -0.125 -0.6875 -0.375q-0.265625 -0.25 -0.390625 -0.640625q-0.125 -0.40625 -0.125 -0.96875l0 -5.078125q0 -0.21875 0.046875 -0.375q0.046875 -0.15625 0.1875 -0.25q0.15625 -0.09375 0.484375 -0.09375q0.328125 0 0.46875 0.109375q0.15625 0.09375 0.203125 0.25q0.046875 0.15625 0.046875 0.359375l0 5.03125q0 0.25 0.03125 0.40625q0.046875 0.15625 0.140625 0.234375q0.09375 0.078125 0.234375 0.109375q0.15625 0.03125 0.375 0.03125q0.21875 0 0.375 0.046875q0.171875 0.03125 0.25 0.171875q0.09375 0.125 0.09375 0.4375q0 0.34375 -0.109375 0.5q-0.09375 0.140625 -0.265625 0.171875q-0.15625 0.046875 -0.34375 0.046875zm-2.703125 -5.796875l1.234375 0.015625l1.65625 -0.0625q0.203125 0 0.359375 0.046875q0.171875 0.046875 0.265625 0.203125q0.09375 0.140625 0.09375 0.484375q0 0.296875 -0.09375 0.453125q-0.09375 0.15625 -0.25 0.203125q-0.15625 0.046875 -0.359375 0.046875l-1.609375 -0.03125l-1.34375 0.015625q-0.296875 -0.015625 -0.40625 -0.171875q-0.109375 -0.15625 -0.109375 -0.53125q0 -0.359375 0.125 -0.515625q0.140625 -0.15625 0.4375 -0.15625zm5.2749023 5.796875q-0.328125 0 -0.484375 -0.109375q-0.15625 -0.09375 -0.1875 -0.25q-0.03125 -0.171875 -0.03125 -0.375l0 -4.46875q0 -0.1875 0.03125 -0.34375q0.046875 -0.171875 0.1875 -0.265625q0.15625 -0.09375 0.5 -0.09375q0.328125 0 0.484375 0.09375q0.15625 0.09375 0.1875 0.265625q0.03125 0.171875 0.03125 0.375l0 4.453125q0 0.203125 -0.03125 0.359375q-0.03125 0.15625 -0.1875 0.25q-0.15625 0.109375 -0.5 0.109375zm0 -7.078125q-0.34375 0 -0.515625 -0.09375q-0.15625 -0.109375 -0.203125 -0.28125q-0.03125 -0.1875 -0.03125 -0.40625q0 -0.21875 0.03125 -0.390625q0.046875 -0.171875 0.21875 -0.265625q0.171875 -0.109375 0.515625 -0.109375q0.359375 0 0.515625 0.109375q0.15625 0.109375 0.203125 0.28125q0.046875 0.171875 0.046875 0.40625q0 0.203125 -0.046875 0.390625q-0.046875 0.171875 -0.203125 0.265625q-0.15625 0.09375 -0.53125 0.09375zm4.736023 7.140625q-0.578125 0 -1.125 -0.21875q-0.546875 -0.21875 -0.984375 -0.625q-0.4375 -0.40625 -0.703125 -0.953125q-0.25 -0.5625 -0.25 -1.21875q0 -0.640625 0.234375 -1.1875q0.234375 -0.5625 0.65625 -0.96875q0.421875 -0.421875 0.96875 -0.65625q0.546875 -0.234375 1.171875 -0.234375q0.84375 0 1.515625 0.40625q0.6875 0.390625 1.09375 1.078125q0.421875 0.6875 0.421875 1.546875q0 0.6875 -0.265625 1.25q-0.25 0.546875 -0.6875 0.953125q-0.421875 0.40625 -0.953125 0.625q-0.53125 0.203125 -1.09375 0.203125zm-0.03125 -1.40625q0.390625 0 0.75 -0.203125q0.375 -0.203125 0.609375 -0.5625q0.234375 -0.375 0.234375 -0.890625q0 -0.46875 -0.21875 -0.828125q-0.203125 -0.359375 -0.5625 -0.5625q-0.359375 -0.203125 -0.828125 -0.203125q-0.4375 0 -0.796875 0.21875q-0.359375 0.203125 -0.578125 0.578125q-0.203125 0.359375 -0.203125 0.8125q0 0.5 0.21875 0.875q0.234375 0.359375 0.59375 0.5625q0.375 0.203125 0.78125 0.203125zm4.6768036 1.328125q-0.3125 0 -0.46875 -0.109375q-0.15625 -0.09375 -0.1875 -0.25q-0.03125 -0.171875 -0.03125 -0.375l0 -4.484375q0 -0.1875 0.03125 -0.34375q0.03125 -0.15625 0.1875 -0.25q0.15625 -0.09375 0.484375 -0.09375q0.28125 0 0.421875 0.078125q0.15625 0.0625 0.203125 0.171875q0.046875 0.109375 0.046875 0.21875q0.015625 0.109375 0.03125 0.171875l-0.0625 0.375q0.078125 -0.1875 0.25 -0.359375q0.171875 -0.1875 0.40625 -0.328125q0.234375 -0.15625 0.515625 -0.25q0.28125 -0.09375 0.59375 -0.09375q0.5625 0 1.0 0.203125q0.453125 0.203125 0.765625 0.578125q0.3125 0.375 0.484375 0.890625q0.171875 0.5 0.171875 1.140625l0 2.390625q0 0.203125 -0.046875 0.375q-0.046875 0.15625 -0.1875 0.25q-0.140625 0.09375 -0.484375 0.09375q-0.34375 0 -0.5 -0.109375q-0.15625 -0.09375 -0.1875 -0.25q-0.03125 -0.171875 -0.03125 -0.375l0 -2.390625q0 -0.421875 -0.15625 -0.734375q-0.15625 -0.3125 -0.4375 -0.484375q-0.28125 -0.171875 -0.703125 -0.171875q-0.421875 0 -0.734375 0.171875q-0.3125 0.171875 -0.484375 0.484375q-0.171875 0.3125 -0.171875 0.734375l0 2.40625q0 0.203125 -0.03125 0.375q-0.03125 0.15625 -0.1875 0.25q-0.140625 0.09375 -0.5 0.09375z" fill-rule="nonzero"/><a xlink:href="#slide=id.g7a4e75f9cd_0_34" target="_blank" rel="noreferrer"><path fill="transparent" fill-opacity="0" d="m-211.80315 73.61155l86.3937 0l0 28.7874l-86.3937 0z" fill-rule="evenodd"/></a></g></svg>