<svg version="1.1" viewBox="0.0 0.0 964.7349081364829 225.31496062992127" fill="none" stroke="none" stroke-linecap="square" stroke-miterlimit="10" xmlns:xlink="http://www.w3.org/1999/xlink" xmlns="http://www.w3.org/2000/svg"><clipPath id="p.0"><path d="m0 0l964.7349 0l0 225.31496l-964.7349 0l0 -225.31496z" clip-rule="nonzero"/></clipPath><g clip-path="url(#p.0)"><path fill="#000000" fill-opacity="0.0" d="m0 0l964.7349 0l0 225.31496l-964.7349 0z" fill-rule="evenodd"/><g filter="url(#shadowFilter-p.1)"><use xlink:href="#p.1" transform="matrix(1.0 0.0 0.0 1.0 0.0 2.0)"/></g><defs><filter id="shadowFilter-p.1" filterUnits="userSpaceOnUse"><feGaussianBlur in="SourceAlpha" stdDeviation="2.0" result="blur"/><feComponentTransfer in="blur" color-interpolation-filters="sRGB"><feFuncR type="linear" slope="0" intercept="0.0"/><feFuncG type="linear" slope="0" intercept="0.0"/><feFuncB type="linear" slope="0" intercept="0.0"/><feFuncA type="linear" slope="0.5" intercept="0"/></feComponentTransfer></filter></defs><g id="p.1"><defs><radialGradient id="p.2" gradientUnits="userSpaceOnUse" gradientTransform="matrix(22.18962620583897 0.0 0.0 22.18962620583897 0.0 0.0)" spreadMethod="pad" cx="21.6750473853636" cy="4.987498187027552" fx="21.6750473853636" fy="4.987498187027552" r="22.189626693725586"><stop offset="0.0" stop-color="#6fa8dc"/><stop offset="1.0" stop-color="#0b5394"/></radialGradient></defs><path fill="url(#p.2)" d="m0.96 0.96l960.0024 0l0 175.53714l-480.0012 43.884293l-480.00122 -43.884293z" fill-rule="evenodd"/></g><g filter="url(#shadowFilter-p.3)"><use xlink:href="#p.3" transform="matrix(1.0 0.0 0.0 1.0 0.0 2.0)"/></g><defs><filter id="shadowFilter-p.3" filterUnits="userSpaceOnUse"><feGaussianBlur in="SourceAlpha" stdDeviation="2.0" result="blur"/><feComponentTransfer in="blur" color-interpolation-filters="sRGB"><feFuncR type="linear" slope="0" intercept="0.0"/><feFuncG type="linear" slope="0" intercept="0.0"/><feFuncB type="linear" slope="0" intercept="0.0"/><feFuncA type="linear" slope="0.5" intercept="0"/></feComponentTransfer></filter></defs><g id="p.3"><path fill="#000000" fill-opacity="0.0" d="m15.727035 15.275591l930.0026 0l0 148.28766l-465.00134 37.07193l-465.0013 -37.07193z" fill-rule="evenodd"/><path fill="#eeece1" d="m81.03258 127.696915q-5.09375 0 -9.109375 -2.03125q-4.0 -2.03125 -6.765625 -5.5625q-2.75 -3.53125 -4.15625 -8.15625q-1.390625 -4.640625 -1.390625 -9.9375q0.09375 -5.3125 1.546875 -9.9375q1.46875 -4.625 4.21875 -8.109375q2.75 -3.484375 6.703125 -5.453125q3.953125 -1.984375 8.953125 -1.984375q4.78125 0 8.984375 1.984375q4.21875 1.96875 7.484375 5.453125q3.28125 3.484375 5.15625 8.109375q1.875 4.625 1.875 9.828125q0 5.40625 -1.875 10.140625q-1.875 4.734375 -5.09375 8.21875q-3.21875 3.484375 -7.484375 5.46875q-4.265625 1.96875 -9.046875 1.96875zm-1.671875 -12.171875q3.640625 0 6.546875 -1.703125q2.921875 -1.71875 4.640625 -4.734375q1.71875 -3.03125 1.71875 -6.875q0 -3.953125 -1.71875 -7.015625q-1.71875 -3.0625 -4.640625 -4.78125q-2.90625 -1.71875 -6.546875 -1.71875q-3.53125 0 -6.453125 1.765625q-2.90625 1.765625 -4.625 4.78125q-1.703125 3.015625 -1.703125 6.96875q0 3.84375 1.703125 6.875q1.71875 3.015625 4.625 4.734375q2.921875 1.703125 6.453125 1.703125zm-19.234375 12.28125q-2.8125 0 -4.171875 -0.890625q-1.34375 -0.890625 -1.65625 -2.28125q-0.3125 -1.40625 -0.3125 -3.171875l0 -61.984375q0 -1.78125 0.3125 -3.171875q0.3125 -1.40625 1.65625 -2.234375q1.359375 -0.84375 4.171875 -0.84375q2.90625 0 4.15625 0.84375q1.25 0.828125 1.5625 2.28125q0.3125 1.453125 0.3125 3.125l0 64.0625q-0.421875 2.28125 -1.71875 3.265625q-1.296875 1.0 -4.3125 1.0zm95.36456 -0.21875q-3.015625 0 -4.46875 -1.140625q-1.453125 -1.140625 -1.453125 -3.125l0.71875 -3.421875q-0.828125 1.34375 -2.8125 3.171875q-1.96875 1.8125 -5.203125 3.21875q-3.21875 1.40625 -7.78125 1.40625q-4.890625 0 -9.21875 -2.03125q-4.3125 -2.03125 -7.59375 -5.609375q-3.265625 -3.59375 -5.1875 -8.21875q-1.921875 -4.625 -1.921875 -9.9375q0 -5.09375 1.921875 -9.609375q1.921875 -4.53125 5.25 -8.0625q3.328125 -3.546875 7.640625 -5.5625q4.3125 -2.03125 9.109375 -2.03125q4.25 0 7.21875 1.140625q2.96875 1.140625 5.046875 2.859375q2.078125 1.71875 3.4375 3.59375l-0.625 -3.015625q0 -2.296875 1.453125 -3.484375q1.453125 -1.203125 4.578125 -1.203125q2.90625 0 4.15625 0.890625q1.25 0.875 1.5625 2.390625q0.3125 1.5 0.3125 3.375l0 38.0625q0 1.765625 -0.3125 3.234375q-0.3125 1.453125 -1.625 2.28125q-1.296875 0.828125 -4.203125 0.828125zm-19.140625 -12.0625q3.546875 0 6.34375 -1.765625q2.8125 -1.765625 4.53125 -4.828125q1.71875 -3.078125 1.71875 -6.8125q0 -4.0625 -1.78125 -7.078125q-1.765625 -3.015625 -4.625 -4.734375q-2.859375 -1.71875 -6.390625 -1.71875q-3.84375 0 -6.859375 1.828125q-3.015625 1.8125 -4.734375 4.890625q-1.71875 3.0625 -1.71875 6.90625q0 3.75 1.765625 6.765625q1.765625 3.015625 4.828125 4.78125q3.078125 1.765625 6.921875 1.765625zm60.426056 12.484375q-4.984375 0 -9.71875 -1.71875q-4.734375 -1.71875 -8.53125 -5.046875q-3.796875 -3.328125 -6.03125 -8.15625q-2.234375 -4.84375 -2.234375 -10.96875q0 -6.140625 2.234375 -10.921875q2.234375 -4.796875 5.96875 -8.125q3.75 -3.328125 8.421875 -5.09375q4.6875 -1.765625 9.6875 -1.765625q3.640625 0 6.90625 1.046875q3.28125 1.03125 5.671875 2.5q2.390625 1.453125 3.4375 2.90625q1.34375 1.25 2.28125 2.390625q0.9375 1.140625 0.625 2.8125q-0.3125 1.03125 -0.9375 1.921875q-0.625 0.875 -1.546875 1.8125q-2.5 2.8125 -4.890625 2.078125q-1.359375 -0.71875 -2.71875 -1.546875q-1.34375 -0.84375 -2.75 -1.625q-1.40625 -0.78125 -2.859375 -1.296875q-1.453125 -0.515625 -3.21875 -0.515625q-3.953125 0 -7.03125 1.71875q-3.0625 1.71875 -4.78125 4.734375q-1.703125 3.015625 -1.703125 6.96875q0 3.9375 1.703125 7.015625q1.71875 3.0625 4.734375 4.78125q3.015625 1.71875 6.875 1.71875q1.859375 0 3.578125 -0.46875q1.71875 -0.46875 3.0625 -1.25q1.359375 -0.78125 2.1875 -1.609375q1.15625 -0.734375 2.078125 -1.359375q0.9375 -0.625 1.984375 -0.625q1.25 0 2.4375 0.890625q1.203125 0.890625 2.65625 2.75q1.359375 1.5625 1.515625 3.03125q0.15625 1.453125 -0.625 2.8125q-0.78125 1.34375 -2.546875 2.484375q-1.25 1.25 -3.703125 2.546875q-2.4375 1.296875 -5.609375 2.234375q-3.171875 0.9375 -6.609375 0.9375zm68.74367 -11.4375q2.703125 2.28125 2.859375 4.265625q0.15625 1.96875 -2.125 4.5625q-1.765625 1.984375 -3.125 2.609375q-1.34375 0.625 -2.703125 0.046875q-1.34375 -0.5625 -3.21875 -2.125l-19.875 -16.75l0 12.375q0 1.671875 -0.359375 3.125q-0.359375 1.453125 -1.671875 2.28125q-1.296875 0.84375 -4.203125 0.84375q-2.90625 0 -4.21875 -0.890625q-1.296875 -0.890625 -1.609375 -2.34375q-0.3125 -1.453125 -0.3125 -3.109375l0 -62.09375q0 -1.765625 0.359375 -3.171875q0.375 -1.40625 1.671875 -2.28125q1.296875 -0.890625 4.21875 -0.890625q2.90625 0 4.15625 0.890625q1.25 0.875 1.609375 2.28125q0.359375 1.40625 0.359375 3.28125l0 34.109375l14.359375 -13.9375q1.671875 -1.5625 3.125 -2.125q1.453125 -0.578125 2.859375 -0.109375q1.40625 0.46875 2.953125 2.234375q2.609375 2.8125 2.5 4.640625q-0.09375 1.8125 -2.59375 4.296875l-14.046875 13.0l19.03125 14.984375zm12.063049 -10.609375q-1.34375 0 -2.65625 -0.3125q-1.296875 -0.3125 -2.078125 -1.5625q-0.765625 -1.25 -0.765625 -4.0625q0 -2.703125 0.765625 -3.890625q0.78125 -1.203125 2.078125 -1.5625q1.3125 -0.359375 2.5625 -0.359375l25.890625 0q1.359375 0 2.59375 0.359375q1.25 0.359375 2.03125 1.5625q0.78125 1.1875 0.78125 4.0q0 2.703125 -0.78125 3.953125q-0.78125 1.25 -2.03125 1.5625q-1.234375 0.3125 -2.703125 0.3125l-25.6875 0zm68.64392 21.109375q-5.09375 0 -9.109375 -1.921875q-4.0 -1.921875 -6.75 -5.40625q-2.75 -3.484375 -4.15625 -8.0625q-1.40625 -4.578125 -1.40625 -9.875q0.109375 -5.3125 1.5625 -9.9375q1.453125 -4.625 4.203125 -8.0625q2.765625 -3.4375 6.71875 -5.40625q3.953125 -1.984375 8.9375 -1.984375q4.78125 0 8.984375 1.984375q4.21875 1.96875 7.5 5.515625q3.28125 3.53125 5.140625 8.15625q1.875 4.625 1.875 9.9375q0 5.40625 -1.875 9.984375q-1.859375 4.578125 -5.09375 7.953125q-3.21875 3.375 -7.484375 5.25q-4.265625 1.875 -9.046875 1.875zm-20.796875 21.625q-2.8125 0 -4.171875 -0.828125q-1.34375 -0.828125 -1.65625 -2.1875q-0.3125 -1.34375 -0.3125 -3.109375l0 -59.796875q0 -1.78125 0.3125 -3.125q0.3125 -1.359375 1.609375 -2.234375q1.3125 -0.890625 4.109375 -0.890625q2.703125 0 4.265625 0.84375q1.5625 0.828125 2.078125 2.796875l0 62.296875q0.109375 1.765625 -0.265625 3.171875q-0.359375 1.40625 -1.71875 2.234375q-1.34375 0.828125 -4.25 0.828125zm19.140625 -33.28125q3.640625 0 6.546875 -1.703125q2.90625 -1.71875 4.625 -4.78125q1.71875 -3.078125 1.71875 -6.921875q0 -3.953125 -1.71875 -6.96875q-1.71875 -3.015625 -4.625 -4.734375q-2.90625 -1.71875 -6.546875 -1.71875q-3.546875 0 -6.453125 1.78125q-2.90625 1.765625 -4.625 4.734375q-1.71875 2.953125 -1.71875 6.90625q0 3.84375 1.71875 6.921875q1.71875 3.0625 4.625 4.78125q2.90625 1.703125 6.453125 1.703125zm57.817688 13.0q-4.984375 0 -9.71875 -1.921875q-4.734375 -1.921875 -8.53125 -5.453125q-3.796875 -3.53125 -6.03125 -8.3125q-2.234375 -4.796875 -2.234375 -10.515625q0 -5.515625 2.078125 -10.296875q2.078125 -4.78125 5.71875 -8.421875q3.640625 -3.640625 8.375 -5.65625q4.734375 -2.03125 10.140625 -2.03125q7.28125 0 13.203125 3.484375q5.921875 3.484375 9.453125 9.40625q3.546875 5.921875 3.546875 13.421875q0 5.921875 -2.1875 10.765625q-2.1875 4.828125 -5.9375 8.3125q-3.734375 3.484375 -8.359375 5.359375q-4.625 1.859375 -9.515625 1.859375zm-0.203125 -12.265625q3.421875 0 6.59375 -1.71875q3.171875 -1.71875 5.203125 -4.9375q2.03125 -3.21875 2.03125 -7.59375q0 -4.046875 -1.828125 -7.171875q-1.8125 -3.125 -4.9375 -4.890625q-3.109375 -1.765625 -7.171875 -1.765625q-3.84375 0 -6.96875 1.828125q-3.125 1.8125 -4.953125 4.984375q-1.8125 3.171875 -1.8125 7.125q0 4.359375 1.96875 7.53125q1.984375 3.171875 5.15625 4.890625q3.171875 1.71875 6.71875 1.71875zm59.167297 11.859375q-4.984375 0 -9.71875 -1.71875q-4.734375 -1.71875 -8.53125 -5.046875q-3.796875 -3.328125 -6.03125 -8.15625q-2.234375 -4.84375 -2.234375 -10.96875q0 -6.140625 2.234375 -10.921875q2.234375 -4.796875 5.96875 -8.125q3.75 -3.328125 8.421875 -5.09375q4.6875 -1.765625 9.6875 -1.765625q3.640625 0 6.90625 1.046875q3.28125 1.03125 5.671875 2.5q2.390625 1.453125 3.4375 2.90625q1.34375 1.25 2.28125 2.390625q0.9375 1.140625 0.625 2.8125q-0.3125 1.03125 -0.9375 1.921875q-0.625 0.875 -1.546875 1.8125q-2.5 2.8125 -4.890625 2.078125q-1.359375 -0.71875 -2.71875 -1.546875q-1.34375 -0.84375 -2.75 -1.625q-1.40625 -0.78125 -2.859375 -1.296875q-1.453125 -0.515625 -3.21875 -0.515625q-3.953125 0 -7.03125 1.71875q-3.0625 1.71875 -4.78125 4.734375q-1.703125 3.015625 -1.703125 6.96875q0 3.9375 1.703125 7.015625q1.71875 3.0625 4.734375 4.78125q3.015625 1.71875 6.875 1.71875q1.859375 0 3.578125 -0.46875q1.71875 -0.46875 3.0625 -1.25q1.359375 -0.78125 2.1875 -1.609375q1.15625 -0.734375 2.078125 -1.359375q0.9375 -0.625 1.984375 -0.625q1.25 0 2.4375 0.890625q1.203125 0.890625 2.65625 2.75q1.359375 1.5625 1.515625 3.03125q0.15625 1.453125 -0.625 2.8125q-0.78125 1.34375 -2.546875 2.484375q-1.25 1.25 -3.703125 2.546875q-2.4375 1.296875 -5.609375 2.234375q-3.171875 0.9375 -6.609375 0.9375zm68.74368 -11.4375q2.703125 2.28125 2.859375 4.265625q0.15625 1.96875 -2.125 4.5625q-1.765625 1.984375 -3.125 2.609375q-1.34375 0.625 -2.703125 0.046875q-1.34375 -0.5625 -3.21875 -2.125l-19.87503 -16.75l0 12.375q0 1.671875 -0.359375 3.125q-0.359375 1.453125 -1.671875 2.28125q-1.296875 0.84375 -4.203125 0.84375q-2.90625 0 -4.21875 -0.890625q-1.296875 -0.890625 -1.609375 -2.34375q-0.3125 -1.453125 -0.3125 -3.109375l0 -62.09375q0 -1.765625 0.359375 -3.171875q0.375 -1.40625 1.671875 -2.28125q1.296875 -0.890625 4.21875 -0.890625q2.90625 0 4.15625 0.890625q1.25 0.875 1.609375 2.28125q0.359375 1.40625 0.359375 3.28125l0 34.109375l14.3594055 -13.9375q1.671875 -1.5625 3.125 -2.125q1.453125 -0.578125 2.859375 -0.109375q1.40625 0.46875 2.953125 2.234375q2.609375 2.8125 2.5 4.640625q-0.09375 1.8125 -2.59375 4.296875l-14.0469055 13.0l19.03128 14.984375zm32.55243 11.84375q-6.75 0 -11.796875 -2.171875q-5.046875 -2.1875 -8.4375 -5.984375q-3.375 -3.796875 -5.09375 -8.53125q-1.703125 -4.734375 -1.703125 -9.828125q0 -7.484375 3.421875 -13.296875q3.4375 -5.828125 9.515625 -9.15625q6.09375 -3.328125 14.0 -3.328125q5.609375 0 9.875 1.765625q4.265625 1.765625 7.125 4.625q2.859375 2.859375 4.359375 6.296875q1.515625 3.421875 1.515625 6.65625q0 5.5 -2.65625 8.0q-2.65625 2.5 -6.59375 2.5l-27.46875 0q0.109375 3.53125 2.234375 6.140625q2.140625 2.59375 5.40625 4.0q3.28125 1.40625 6.71875 1.40625q2.59375 0 4.625 -0.3125q2.03125 -0.3125 3.484375 -0.78125q1.453125 -0.46875 2.546875 -0.984375q1.09375 -0.53125 2.03125 -0.9375q0.9375 -0.421875 1.765625 -0.53125q1.140625 -0.09375 2.28125 0.53125q1.15625 0.625 1.875 2.171875q0.625 1.046875 0.890625 1.9375q0.265625 0.875 0.265625 1.703125q0 2.078125 -2.5 3.90625q-2.5 1.8125 -7.03125 3.0q-4.515625 1.203125 -10.65625 1.203125zm-13.9375 -29.84375l21.328125 0q1.765625 0 2.703125 -0.5625q0.9375 -0.578125 0.9375 -2.453125q0 -2.390625 -1.46875 -4.3125q-1.453125 -1.921875 -3.953125 -3.015625q-2.484375 -1.09375 -5.8125 -1.09375q-3.84375 0 -6.96875 1.515625q-3.125 1.5 -4.953125 4.109375q-1.8125 2.59375 -1.8125 5.8125zm69.4848 29.234375q-5.109375 0 -8.75 -1.046875q-3.640625 -1.046875 -5.921875 -3.21875q-2.28125 -2.1875 -3.375 -5.671875q-1.09375 -3.484375 -1.09375 -8.265625l0 -44.09375q0 -1.875 0.359375 -3.21875q0.359375 -1.359375 1.65625 -2.140625q1.3125 -0.78125 4.125 -0.78125q2.90625 0 4.203125 0.828125q1.296875 0.828125 1.65625 2.234375q0.375 1.40625 0.375 3.078125l0 43.671875q0 2.1875 0.359375 3.546875q0.359375 1.34375 1.140625 2.015625q0.78125 0.671875 2.078125 0.9375q1.3125 0.265625 3.1875 0.265625q1.96875 0 3.375 0.3125q1.40625 0.3125 2.125 1.515625q0.734375 1.1875 0.734375 3.890625q0 2.90625 -0.890625 4.21875q-0.875 1.296875 -2.28125 1.609375q-1.40625 0.3125 -3.0625 0.3125zm-23.40625 -50.234375l10.703125 0.09375l14.359375 -0.40625q1.765625 0 3.171875 0.359375q1.40625 0.359375 2.234375 1.671875q0.828125 1.296875 0.828125 4.203125q0 2.703125 -0.828125 4.0625q-0.828125 1.34375 -2.1875 1.71875q-1.34375 0.359375 -3.109375 0.359375l-13.9375 -0.21875l-11.546875 0.109375q-2.59375 -0.109375 -3.59375 -1.5q-0.984375 -1.40625 -0.984375 -4.640625q0 -3.015625 1.1875 -4.40625q1.203125 -1.40625 3.703125 -1.40625zm70.924255 50.125q-2.8125 0 -4.109375 -0.84375q-1.296875 -0.828125 -1.609375 -2.28125q-0.3125 -1.453125 -0.3125 -3.109375l0 -38.90625q0 -1.65625 0.3125 -3.0q0.3125 -1.359375 1.65625 -2.1875q1.359375 -0.84375 4.265625 -0.84375q3.015625 0 4.421875 1.25q1.40625 1.25 1.40625 3.953125l-0.9375 2.90625q0.53125 -1.140625 1.765625 -2.484375q1.25 -1.359375 3.0625 -2.703125q1.828125 -1.359375 4.109375 -2.1875q2.296875 -0.84375 4.796875 -0.84375q3.4375 0 6.296875 1.15625q2.859375 1.140625 5.09375 3.328125q2.234375 2.171875 3.890625 5.296875q1.765625 -2.703125 3.953125 -4.9375q2.1875 -2.234375 5.09375 -3.53125q2.921875 -1.3125 6.5625 -1.3125q6.03125 0 10.140625 3.03125q4.109375 3.015625 6.234375 8.578125q2.140625 5.5625 2.140625 13.25l0 20.1875q0 1.765625 -0.375 3.171875q-0.359375 1.390625 -1.65625 2.21875q-1.296875 0.84375 -4.21875 0.84375q-2.90625 0 -4.265625 -0.890625q-1.34375 -0.875 -1.65625 -2.28125q-0.3125 -1.40625 -0.3125 -3.171875l0 -20.171875q0 -3.859375 -0.9375 -6.65625q-0.9375 -2.8125 -2.765625 -4.375q-1.8125 -1.5625 -4.71875 -1.5625q-3.125 0 -5.359375 1.515625q-2.234375 1.5 -3.484375 4.3125q-1.25 2.8125 -1.25 6.859375l0 20.28125q0 1.765625 -0.53125 3.28125q-0.515625 1.5 -2.03125 2.28125q-1.5 0.78125 -4.296875 0.578125q-2.609375 -0.109375 -3.8125 -1.046875q-1.1875 -0.9375 -1.453125 -2.328125q-0.25 -1.40625 -0.25 -2.96875l0 -20.171875q0 -3.859375 -0.9375 -6.71875q-0.9375 -2.859375 -2.765625 -4.359375q-1.8125 -1.515625 -4.828125 -1.515625q-3.21875 0 -5.453125 1.671875q-2.234375 1.65625 -3.390625 4.46875q-1.140625 2.8125 -1.140625 6.453125l0 20.375q0 1.671875 -0.359375 3.125q-0.359375 1.453125 -1.671875 2.234375q-1.296875 0.78125 -4.3125 0.78125zm121.26544 -0.109375q-3.015625 0 -4.46875 -1.140625q-1.453125 -1.140625 -1.453125 -3.125l0.71875 -3.421875q-0.828125 1.34375 -2.8125 3.171875q-1.96875 1.8125 -5.203125 3.21875q-3.21875 1.40625 -7.78125 1.40625q-4.890625 0 -9.21875 -2.03125q-4.3125 -2.03125 -7.59375 -5.609375q-3.265625 -3.59375 -5.1875 -8.21875q-1.921875 -4.625 -1.921875 -9.9375q0 -5.09375 1.921875 -9.609375q1.921875 -4.53125 5.25 -8.0625q3.328125 -3.546875 7.640625 -5.5625q4.3125 -2.03125 9.109375 -2.03125q4.25 0 7.21875 1.140625q2.96875 1.140625 5.046875 2.859375q2.078125 1.71875 3.4375 3.59375l-0.625 -3.015625q0 -2.296875 1.453125 -3.484375q1.453125 -1.203125 4.578125 -1.203125q2.90625 0 4.15625 0.890625q1.25 0.875 1.5625 2.390625q0.3125 1.5 0.3125 3.375l0 38.0625q0 1.765625 -0.3125 3.234375q-0.3125 1.453125 -1.625 2.28125q-1.296875 0.828125 -4.203125 0.828125zm-19.140625 -12.0625q3.546875 0 6.34375 -1.765625q2.8125 -1.765625 4.53125 -4.828125q1.71875 -3.078125 1.71875 -6.8125q0 -4.0625 -1.78125 -7.078125q-1.765625 -3.015625 -4.625 -4.734375q-2.859375 -1.71875 -6.390625 -1.71875q-3.84375 0 -6.859375 1.828125q-3.015625 1.8125 -4.734375 4.890625q-1.71875 3.0625 -1.71875 6.90625q0 3.75 1.765625 6.765625q1.765625 3.015625 4.828125 4.78125q3.078125 1.765625 6.921875 1.765625zm60.957336 12.28125q-5.109375 0 -8.75 -1.046875q-3.640625 -1.046875 -5.921875 -3.21875q-2.28125 -2.1875 -3.375 -5.671875q-1.09375 -3.484375 -1.09375 -8.265625l0 -44.09375q0 -1.875 0.359375 -3.21875q0.359375 -1.359375 1.65625 -2.140625q1.3125 -0.78125 4.125 -0.78125q2.90625 0 4.203125 0.828125q1.296875 0.828125 1.65625 2.234375q0.375 1.40625 0.375 3.078125l0 43.671875q0 2.1875 0.359375 3.546875q0.359375 1.34375 1.140625 2.015625q0.78125 0.671875 2.078125 0.9375q1.3125 0.265625 3.1875 0.265625q1.96875 0 3.375 0.3125q1.40625 0.3125 2.125 1.515625q0.734375 1.1875 0.734375 3.890625q0 2.90625 -0.890625 4.21875q-0.875 1.296875 -2.28125 1.609375q-1.40625 0.3125 -3.0625 0.3125zm-23.40625 -50.234375l10.703125 0.09375l14.359375 -0.40625q1.765625 0 3.171875 0.359375q1.40625 0.359375 2.234375 1.671875q0.828125 1.296875 0.828125 4.203125q0 2.703125 -0.828125 4.0625q-0.828125 1.34375 -2.1875 1.71875q-1.34375 0.359375 -3.109375 0.359375l-13.9375 -0.21875l-11.546875 0.109375q-2.59375 -0.109375 -3.59375 -1.5q-0.984375 -1.40625 -0.984375 -4.640625q0 -3.015625 1.1875 -4.40625q1.203125 -1.40625 3.703125 -1.40625zm44.726074 50.234375q-2.921875 0 -4.21875 -0.890625q-1.296875 -0.890625 -1.609375 -2.34375q-0.3125 -1.453125 -0.3125 -3.109375l0 -62.09375q0 -1.765625 0.359375 -3.171875q0.359375 -1.40625 1.65625 -2.234375q1.3125 -0.828125 4.21875 -0.828125q2.921875 0 4.21875 0.890625q1.296875 0.875 1.65625 2.28125q0.375 1.390625 0.375 3.171875l0 23.5q2.078125 -2.390625 5.34375 -4.421875q3.28125 -2.03125 7.96875 -2.03125q6.34375 0 11.328125 3.078125q5.0 3.0625 7.90625 8.46875q2.90625 5.40625 2.90625 12.6875l0 20.796875q0 1.671875 -0.3125 3.078125q-0.3125 1.390625 -1.609375 2.21875q-1.296875 0.84375 -4.203125 0.84375q-2.921875 0 -4.28125 -0.84375q-1.34375 -0.828125 -1.65625 -2.21875q-0.3125 -1.40625 -0.3125 -3.28125l0 -20.703125q0 -3.640625 -1.25 -6.34375q-1.25 -2.703125 -3.6875 -4.203125q-2.4375 -1.515625 -6.078125 -1.515625q-4.890625 0 -8.21875 2.859375q-3.328125 2.859375 -3.84375 7.34375l0 22.765625q0 1.671875 -0.375 3.125q-0.359375 1.453125 -1.65625 2.28125q-1.296875 0.84375 -4.3125 0.84375z" fill-rule="nonzero"/></g><g filter="url(#shadowFilter-p.4)"><use xlink:href="#p.4" transform="matrix(1.0 0.0 0.0 1.0 0.0 2.0)"/></g><defs><filter id="shadowFilter-p.4" filterUnits="userSpaceOnUse"><feGaussianBlur in="SourceAlpha" stdDeviation="2.0" result="blur"/><feComponentTransfer in="blur" color-interpolation-filters="sRGB"><feFuncR type="linear" slope="0" intercept="0.0"/><feFuncG type="linear" slope="0" intercept="0.0"/><feFuncB type="linear" slope="0" intercept="0.0"/><feFuncA type="linear" slope="0.5" intercept="0"/></feComponentTransfer></filter></defs><g id="p.4"><path fill="#000000" fill-opacity="0.0" d="m872.64 37.44l58.48816 0l0 44.440945l-58.48816 0z" fill-rule="evenodd"/><path fill="#eeece1" d="m897.95337 51.63797q0.359375 0 0.625 0.078125q0.28125 0.0625 0.453125 0.34375q0.171875 0.28125 0.171875 0.875q0 0.609375 -0.171875 0.890625q-0.171875 0.265625 -0.46875 0.328125q-0.28125 0.0625 -0.640625 0.0625l-4.40625 0l0 12.78125q0 0.40625 -0.09375 0.734375q-0.078125 0.328125 -0.390625 0.515625q-0.296875 0.1875 -0.984375 0.1875q-0.65625 0 -0.96875 -0.203125q-0.3125 -0.203125 -0.390625 -0.515625q-0.0625 -0.328125 -0.0625 -0.734375l0 -12.765625l-4.46875 0q-0.328125 0 -0.625 -0.078125q-0.28125 -0.078125 -0.46875 -0.328125q-0.171875 -0.265625 -0.171875 -0.875q0 -0.59375 0.171875 -0.875q0.171875 -0.28125 0.46875 -0.34375q0.296875 -0.078125 0.625 -0.078125l11.796875 0zm4.7283325 16.78125q-0.625 0 -0.9375 -0.203125q-0.3125 -0.1875 -0.40625 -0.515625q-0.078125 -0.34375 -0.078125 -0.75l0 -13.84375q0 -0.390625 0.078125 -0.703125q0.09375 -0.328125 0.40625 -0.53125q0.3125 -0.203125 0.984375 -0.203125q0.5 0 0.75 0.0625q0.25 0.046875 0.390625 0.15625q0.15625 0.109375 0.296875 0.28125l5.859375 8.1875l-0.5625 0l5.890625 -8.21875q0.15625 -0.1875 0.328125 -0.28125q0.171875 -0.09375 0.4375 -0.140625q0.265625 -0.046875 0.6875 -0.046875q0.65625 0 0.96875 0.203125q0.3125 0.203125 0.390625 0.546875q0.09375 0.328125 0.09375 0.734375l0 13.84375q0 0.359375 -0.09375 0.703125q-0.078125 0.328125 -0.390625 0.515625q-0.3125 0.203125 -0.984375 0.203125q-0.65625 0 -0.96875 -0.203125q-0.3125 -0.203125 -0.390625 -0.53125q-0.078125 -0.34375 -0.078125 -0.734375l0 -10.296875l-4.375 6.3125q-0.078125 0.09375 -0.21875 0.25q-0.140625 0.15625 -0.390625 0.28125q-0.234375 0.125 -0.640625 0.125q-0.375 0 -0.625 -0.125q-0.234375 -0.125 -0.375 -0.265625q-0.125 -0.140625 -0.25 -0.28125l-4.34375 -6.296875l0 10.34375q0 0.359375 -0.078125 0.703125q-0.078125 0.328125 -0.390625 0.515625q-0.3125 0.203125 -0.984375 0.203125z" fill-rule="nonzero"/></g></g></svg>