<svg version="1.1" viewBox="0.0 0.0 315.83989501312334 74.87926509186352" fill="none" stroke="none" stroke-linecap="square" stroke-miterlimit="10" xmlns:xlink="http://www.w3.org/1999/xlink" xmlns="http://www.w3.org/2000/svg"><clipPath id="p.0"><path d="m0 0l315.8399 0l0 74.879265l-315.8399 0l0 -74.879265z" clip-rule="nonzero"/></clipPath><g clip-path="url(#p.0)"><path fill="#000000" fill-opacity="0.0" d="m0 0l315.8399 0l0 74.879265l-315.8399 0z" fill-rule="evenodd"/><path fill="#000000" fill-opacity="0.0" d="m8.64 12.48l297.6063 0l0 48.0l-297.6063 0z" fill-rule="evenodd"/><path fill="#3d85c6" d="m17.994263 60.098125q-1.734375 0 -2.531249 -0.515625q-0.796875 -0.515625 -1.0 -1.40625q-0.1875 -0.890625 -0.1875 -1.921875l0 -23.9375q0 -1.015625 0.1875 -1.84375q0.203125 -0.84375 1.03125 -1.34375q0.82812405 -0.515625 2.624999 -0.515625q1.859375 0 2.71875 0.765625q0.859375 0.765625 0.859375 2.421875l-0.578125 1.796875q0.328125 -0.703125 1.09375 -1.53125q0.765625 -0.828125 1.875 -1.65625q1.125 -0.84375 2.53125 -1.34375q1.421875 -0.515625 2.953125 -0.515625q2.109375 0 3.859375 0.703125q1.765625 0.703125 3.140625 2.046875q1.390625 1.34375 2.40625 3.265625q1.09375 -1.671875 2.4375 -3.046875q1.34375 -1.375 3.125 -2.171875q1.796875 -0.796875 4.03125 -0.796875q3.71875 0 6.25 1.859375q2.53125 1.84375 3.84375 5.265625q1.3125 3.421875 1.3125 8.15625l0 12.421875q0 1.09375 -0.234375 1.953125q-0.21875 0.859375 -1.03125 1.375q-0.796875 0.515625 -2.578125 0.515625q-1.796875 0 -2.625 -0.546875q-0.828125 -0.546875 -1.03125 -1.40625q-0.1875 -0.859375 -0.1875 -1.953125l0 -12.421875q0 -2.359375 -0.578125 -4.078125q-0.578125 -1.734375 -1.703125 -2.6875q-1.109375 -0.96875 -2.90625 -0.96875q-1.921875 0 -3.296875 0.9375q-1.375 0.921875 -2.140625 2.65625q-0.765625 1.71875 -0.765625 4.203125l0 12.484375q0 1.09375 -0.328125 2.03125q-0.3125 0.921875 -1.25 1.390625q-0.921875 0.484375 -2.640625 0.359375q-1.609375 -0.0625 -2.34375 -0.640625q-0.734375 -0.578125 -0.890625 -1.4375q-0.15625 -0.875 -0.15625 -1.828125l0 -12.421875q0 -2.359375 -0.578125 -4.109375q-0.578125 -1.765625 -1.703125 -2.6875q-1.125 -0.9375 -2.96875 -0.9375q-1.984375 0 -3.359375 1.03125q-1.375 1.015625 -2.09375 2.75q-0.703125 1.71875 -0.703125 3.953125l0 12.546875q0 1.03125 -0.21875 1.921875q-0.21875 0.890625 -1.03125 1.375q-0.796875 0.484375 -2.640625 0.484375zm74.61154 -0.0625q-1.84375 0 -2.75 -0.703125q-0.890625 -0.703125 -0.890625 -1.921875l0.453125 -2.109375q-0.515625 0.828125 -1.734375 1.953125q-1.21875 1.109375 -3.203125 1.984375q-1.984375 0.859375 -4.796875 0.859375q-3.015625 0 -5.671875 -1.25q-2.65625 -1.25 -4.671875 -3.453125q-2.015625 -2.21875 -3.203125 -5.0625q-1.171875 -2.84375 -1.171875 -6.109375q0 -3.140625 1.171875 -5.921875q1.1875 -2.78125 3.234375 -4.953125q2.0625 -2.1875 4.71875 -3.421875q2.65625 -1.25 5.59375 -1.25q2.625 0 4.4375 0.703125q1.828125 0.703125 3.109375 1.765625q1.28125 1.046875 2.109375 2.203125l-0.375 -1.859375q0 -1.40625 0.890625 -2.140625q0.90625 -0.734375 2.8125 -0.734375q1.796875 0 2.5625 0.546875q0.765625 0.53125 0.953125 1.46875q0.203125 0.921875 0.203125 2.078125l0 23.421875q0 1.09375 -0.203125 1.984375q-0.1875 0.890625 -0.984375 1.40625q-0.796875 0.515625 -2.59375 0.515625zm-11.765625 -7.421875q2.171875 0 3.890625 -1.09375q1.734375 -1.09375 2.78125 -2.96875q1.0625 -1.890625 1.0625 -4.203125q0 -2.484375 -1.09375 -4.34375q-1.078125 -1.859375 -2.84375 -2.90625q-1.75 -1.0625 -3.9375 -1.0625q-2.359375 0 -4.21875 1.125q-1.859375 1.109375 -2.921875 3.0q-1.046875 1.890625 -1.046875 4.25q0 2.3125 1.078125 4.171875q1.09375 1.84375 2.984375 2.9375q1.890625 1.09375 4.265625 1.09375zm37.494064 7.546875q-3.125 0 -5.375 -0.640625q-2.234375 -0.640625 -3.640625 -1.984375q-1.40625 -1.34375 -2.078125 -3.484375q-0.671875 -2.140625 -0.671875 -5.09375l0 -27.140625q0 -1.140625 0.21875 -1.96875q0.21875 -0.84375 1.015625 -1.3125q0.8125 -0.484375 2.53125 -0.484375q1.796875 0 2.59375 0.515625q0.796875 0.5 1.015625 1.375q0.234375 0.859375 0.234375 1.875l0 26.890625q0 1.34375 0.21875 2.171875q0.234375 0.828125 0.703125 1.25q0.484375 0.421875 1.28125 0.578125q0.8125 0.15625 1.953125 0.15625q1.21875 0 2.078125 0.203125q0.875 0.1875 1.3125 0.921875q0.453125 0.734375 0.453125 2.390625q0 1.796875 -0.546875 2.59375q-0.546875 0.796875 -1.40625 0.984375q-0.859375 0.203125 -1.890625 0.203125zm-14.390625 -30.90625l6.59375 0.0625l8.828125 -0.265625q1.078125 0 1.9375 0.234375q0.875 0.21875 1.390625 1.015625q0.515625 0.796875 0.515625 2.59375q0 1.671875 -0.515625 2.5q-0.515625 0.828125 -1.34375 1.0625q-0.828125 0.21875 -1.921875 0.21875l-8.578125 -0.125l-7.109375 0.0625q-1.59375 -0.0625 -2.203125 -0.921875q-0.609375 -0.875 -0.609375 -2.859375q0 -1.859375 0.734375 -2.71875q0.734375 -0.859375 2.28125 -0.859375zm27.512833 30.90625q-1.796875 0 -2.59375 -0.546875q-0.796875 -0.546875 -0.984375 -1.4375q-0.1875 -0.890625 -0.1875 -1.921875l0 -38.203125q0 -1.09375 0.21875 -1.953125q0.21875 -0.859375 1.015625 -1.375q0.8125 -0.515625 2.59375 -0.515625q1.796875 0 2.59375 0.546875q0.796875 0.546875 1.015625 1.40625q0.234375 0.859375 0.234375 1.953125l0 14.46875q1.28125 -1.484375 3.296875 -2.71875q2.015625 -1.25 4.890625 -1.25q3.90625 0 6.96875 1.890625q3.078125 1.875 4.875 5.203125q1.796875 3.328125 1.796875 7.8125l0 12.796875q0 1.03125 -0.203125 1.890625q-0.1875 0.859375 -0.984375 1.375q-0.796875 0.515625 -2.59375 0.515625q-1.796875 0 -2.625 -0.515625q-0.828125 -0.515625 -1.03125 -1.375q-0.1875 -0.859375 -0.1875 -2.015625l0 -12.734375q0 -2.234375 -0.765625 -3.890625q-0.765625 -1.671875 -2.265625 -2.59375q-1.5 -0.9375 -3.75 -0.9375q-3.0 0 -5.046875 1.765625q-2.046875 1.75 -2.375 4.5l0 14.015625q0 1.03125 -0.234375 1.921875q-0.21875 0.890625 -1.015625 1.40625q-0.796875 0.515625 -2.65625 0.515625z" fill-rule="nonzero"/><path fill="#0b5394" d="m170.30515 60.160625q-1.71875 0 -2.53125 -0.515625q-0.796875 -0.515625 -0.984375 -1.4375q-0.1875 -0.921875 -0.1875 -1.953125l0 -31.109375q0 -2.359375 0.625 -4.375q0.640625 -2.015625 2.046875 -3.484375q1.421875 -1.484375 3.65625 -2.34375q2.234375 -0.859375 5.4375 -0.859375q1.09375 0 1.953125 0.234375q0.859375 0.21875 1.40625 0.984375q0.546875 0.765625 0.546875 2.625q0 1.71875 -0.546875 2.5625q-0.546875 0.828125 -1.4375 1.015625q-0.890625 0.1875 -1.984375 0.1875q-1.09375 0 -1.890625 0.109375q-0.796875 0.09375 -1.28125 0.421875q-0.46875 0.3125 -0.703125 1.015625q-0.21875 0.703125 -0.21875 1.78125l0 31.359375q0 1.03125 -0.234375 1.890625q-0.21875 0.859375 -1.046875 1.375q-0.828125 0.515625 -2.625 0.515625zm-6.328125 -30.90625l6.59375 0.0625l8.828125 -0.265625q1.078125 0 1.9375 0.234375q0.875 0.21875 1.390625 1.015625q0.515625 0.796875 0.515625 2.59375q0 1.671875 -0.515625 2.5q-0.515625 0.828125 -1.359375 1.0625q-0.828125 0.21875 -1.90625 0.21875l-8.578125 -0.125l-7.109375 0.0625q-1.59375 -0.0625 -2.203125 -0.921875q-0.609375 -0.875 -0.609375 -2.859375q0 -1.859375 0.734375 -2.71875q0.734375 -0.859375 2.28125 -0.859375zm35.009827 30.90625q-2.375 0 -4.203125 -0.328125q-1.828125 -0.3125 -3.140625 -1.078125q-1.296875 -0.765625 -2.140625 -2.078125q-0.828125 -1.3125 -1.25 -3.234375q-0.40625 -1.921875 -0.40625 -4.609375l0 -30.84375q0 -1.09375 0.21875 -1.953125q0.21875 -0.875 1.015625 -1.40625q0.8125 -0.546875 2.609375 -0.546875q1.78125 0 2.578125 0.515625q0.8125 0.5 1.03125 1.375q0.21875 0.859375 0.21875 1.953125l0 30.578125q0 1.21875 0.15625 2.03125q0.171875 0.796875 0.578125 1.28125q0.421875 0.46875 1.09375 0.671875q0.671875 0.1875 1.640625 0.1875q0.828125 0 1.5 0.1875q0.671875 0.1875 1.078125 0.96875q0.421875 0.765625 0.421875 2.484375q0 1.796875 -0.421875 2.625q-0.40625 0.828125 -1.109375 1.015625q-0.703125 0.203125 -1.46875 0.203125zm33.842712 -0.125q-1.84375 0 -2.75 -0.703125q-0.890625 -0.703125 -0.890625 -1.921875l0.453125 -2.109375q-0.515625 0.828125 -1.734375 1.953125q-1.21875 1.109375 -3.203125 1.984375q-1.984375 0.859375 -4.796875 0.859375q-3.015625 0 -5.671875 -1.25q-2.65625 -1.25 -4.671875 -3.453125q-2.015625 -2.21875 -3.203125 -5.0625q-1.171875 -2.84375 -1.171875 -6.109375q0 -3.140625 1.171875 -5.921875q1.1875 -2.78125 3.234375 -4.953125q2.0625 -2.1875 4.71875 -3.421875q2.65625 -1.25 5.59375 -1.25q2.625 0 4.4375 0.703125q1.828125 0.703125 3.109375 1.765625q1.28125 1.046875 2.109375 2.203125l-0.375 -1.859375q0 -1.40625 0.890625 -2.140625q0.90625 -0.734375 2.8125 -0.734375q1.796875 0 2.5625 0.546875q0.765625 0.53125 0.953125 1.46875q0.203125 0.921875 0.203125 2.078125l0 23.421875q0 1.09375 -0.203125 1.984375q-0.1875 0.890625 -0.984375 1.40625q-0.796875 0.515625 -2.59375 0.515625zm-11.765625 -7.421875q2.171875 0 3.890625 -1.09375q1.734375 -1.09375 2.78125 -2.96875q1.0625 -1.890625 1.0625 -4.203125q0 -2.484375 -1.09375 -4.34375q-1.078125 -1.859375 -2.84375 -2.90625q-1.75 -1.0625 -3.9375 -1.0625q-2.359375 0 -4.21875 1.125q-1.859375 1.109375 -2.921875 3.0q-1.046875 1.890625 -1.046875 4.25q0 2.3125 1.078125 4.171875q1.09375 1.84375 2.984375 2.9375q1.890625 1.09375 4.265625 1.09375zm32.88469 7.9375q-1.65625 0 -3.515625 -0.359375q-1.859375 -0.359375 -3.59375 -1.03125q-1.71875 -0.671875 -2.96875 -1.59375q-1.25 -0.921875 -1.5625 -2.078125q-0.25 -0.640625 -0.1875 -1.25q0.0625 -0.609375 0.375 -1.28125q0.328125 -0.671875 0.96875 -1.375q0.578125 -0.703125 1.171875 -0.796875q0.609375 -0.09375 1.578125 0.421875q0.828125 0.3125 1.8125 0.828125q1.0 0.515625 2.046875 1.03125q1.0625 0.5 2.1875 0.828125q1.125 0.3125 2.203125 0.3125q2.3750153 0 3.7812653 -0.796875q1.40625 -0.796875 1.40625 -2.28125q0 -0.828125 -0.453125 -1.46875q-0.4375 -0.640625 -1.1875 -1.046875q-0.734375 -0.421875 -1.734375 -0.765625q-0.98439026 -0.359375 -2.1093903 -0.640625q-1.109375 -0.296875 -2.328125 -0.671875q-1.59375 -0.453125 -3.203125 -1.09375q-1.59375 -0.640625 -2.84375 -1.65625q-1.25 -1.03125 -2.015625 -2.5625q-0.765625 -1.546875 -0.765625 -3.84375q0 -2.890625 1.375 -4.90625q1.375 -2.015625 4.0 -3.09375q2.625 -1.09375 6.34375 -1.09375q1.265625 0 2.4531403 0.203125q1.1875 0.1875 2.296875 0.546875q1.125 0.34375 2.1875 0.859375q1.0625 0.5 2.015625 1.140625q1.59375 0.90625 1.65625 2.09375q0.078125 1.171875 -0.890625 2.515625q-0.703125 0.90625 -1.40625 1.265625q-0.703125 0.34375 -1.46875 0.015625q-1.03125 -0.515625 -2.21875 -1.109375q-1.171875 -0.609375 -2.421875 -1.0625q-1.2500153 -0.453125 -2.5937653 -0.453125q-1.28125 0 -2.3125 0.390625q-1.015625 0.375 -1.53125 1.078125q-0.515625 0.703125 -0.515625 1.671875q0 0.890625 0.515625 1.46875q0.515625 0.578125 1.34375 0.96875q0.828125 0.375 1.984375 0.671875q1.15625 0.28125 2.4375153 0.53125q1.796875 0.390625 3.640625 0.96875q1.859375 0.578125 3.421875 1.609375q1.578125 1.015625 2.53125 2.71875q0.96875 1.6875 0.96875 4.375q0 4.671875 -3.4375 7.234375q-3.421875 2.5625 -9.437515 2.5625zm21.891586 -0.390625q-1.796875 0 -2.59375 -0.546875q-0.796875 -0.546875 -0.984375 -1.4375q-0.1875 -0.890625 -0.1875 -1.921875l0 -38.203125q0 -1.09375 0.21875 -1.953125q0.21875 -0.859375 1.015625 -1.375q0.8125 -0.515625 2.59375 -0.515625q1.796875 0 2.59375 0.546875q0.796875 0.546875 1.015625 1.40625q0.234375 0.859375 0.234375 1.953125l0 14.46875q1.28125 -1.484375 3.296875 -2.71875q2.015625 -1.25 4.890625 -1.25q3.90625 0 6.96875 1.890625q3.078125 1.875 4.875 5.203125q1.796875 3.328125 1.796875 7.8125l0 12.796875q0 1.03125 -0.203125 1.890625q-0.1875 0.859375 -0.984375 1.375q-0.796875 0.515625 -2.59375 0.515625q-1.796875 0 -2.625 -0.515625q-0.828125 -0.515625 -1.03125 -1.375q-0.1875 -0.859375 -0.1875 -2.015625l0 -12.734375q0 -2.234375 -0.765625 -3.890625q-0.765625 -1.671875 -2.265625 -2.59375q-1.5 -0.9375 -3.75 -0.9375q-3.0 0 -5.046875 1.765625q-2.046875 1.75 -2.375 4.5l0 14.015625q0 1.03125 -0.234375 1.921875q-0.21875 0.890625 -1.015625 1.40625q-0.796875 0.515625 -2.65625 0.515625z" fill-rule="nonzero"/><path fill="#000000" fill-opacity="0.0" d="m295.68 10.56l20.157501 0l0 13.448819l-20.157501 0z" fill-rule="evenodd"/><path fill="#3d85c6" d="m304.00372 13.765035q0.171875 0 0.28125 0.046875q0.125 0.03125 0.203125 0.15625q0.078125 0.109375 0.078125 0.375q0 0.265625 -0.078125 0.390625q-0.078125 0.125 -0.203125 0.15625q-0.125 0.015625 -0.28125 0.015625l-1.96875 0l0 5.687499q0 0.171875 -0.03125 0.328125q-0.03125 0.140625 -0.171875 0.21875q-0.140625 0.09375 -0.4375 0.09375q-0.296875 0 -0.4375 -0.09375q-0.125 -0.09375 -0.171875 -0.234375q-0.03125 -0.140625 -0.03125 -0.328125l0 -5.671874l-1.96875 0q-0.15625 0 -0.28125 -0.03125q-0.125 -0.03125 -0.21875 -0.140625q-0.078125 -0.125 -0.078125 -0.390625q0 -0.265625 0.078125 -0.375q0.078125 -0.125 0.203125 -0.15625q0.140625 -0.046875 0.296875 -0.046875l5.21875 0zm2.099945 7.453124q-0.265625 0 -0.40625 -0.09375q-0.140625 -0.078125 -0.1875 -0.21875q-0.03125 -0.15625 -0.03125 -0.328125l0 -6.156249q0 -0.171875 0.03125 -0.3125q0.046875 -0.140625 0.1875 -0.234375q0.140625 -0.09375 0.4375 -0.09375q0.21875 0 0.328125 0.03125q0.109375 0.03125 0.171875 0.078125q0.078125 0.046875 0.140625 0.109375l2.59375 3.640624l-0.25 0l2.625 -3.640624q0.0625 -0.09375 0.140625 -0.125q0.078125 -0.046875 0.1875 -0.0625q0.125 -0.03125 0.3125 -0.03125q0.296875 0 0.421875 0.09375q0.140625 0.09375 0.171875 0.25q0.046875 0.140625 0.046875 0.3125l0 6.156249q0 0.15625 -0.046875 0.3125q-0.03125 0.140625 -0.171875 0.21875q-0.125 0.09375 -0.4375 0.09375q-0.28125 0 -0.421875 -0.09375q-0.140625 -0.078125 -0.171875 -0.234375q-0.03125 -0.15625 -0.03125 -0.3125l0 -4.578124l-1.953125 2.796874q-0.03125 0.046875 -0.09375 0.125q-0.0625 0.0625 -0.171875 0.125q-0.09375 0.046875 -0.28125 0.046875q-0.171875 0 -0.28125 -0.046875q-0.109375 -0.0625 -0.171875 -0.125q-0.046875 -0.0625 -0.109375 -0.125l-1.921875 -2.796874l0 4.593749q0 0.15625 -0.046875 0.3125q-0.03125 0.140625 -0.171875 0.21875q-0.125 0.09375 -0.4375 0.09375z" fill-rule="nonzero"/></g></svg>