<svg version="1.1" viewBox="0.0 0.0 652.8005249343832 152.64041994750656" fill="none" stroke="none" stroke-linecap="square" stroke-miterlimit="10" xmlns:xlink="http://www.w3.org/1999/xlink" xmlns="http://www.w3.org/2000/svg"><clipPath id="p.0"><path d="m0 0l652.80054 0l0 152.64043l-652.80054 0l0 -152.64043z" clip-rule="nonzero"/></clipPath><g clip-path="url(#p.0)"><path fill="#000000" fill-opacity="0.0" d="m0 0l652.80054 0l0 152.64043l-652.80054 0z" fill-rule="evenodd"/><defs><radialGradient id="p.1" gradientUnits="userSpaceOnUse" gradientTransform="matrix(18.307611399923356 0.0 0.0 18.307611399923356 0.0 0.0)" spreadMethod="pad" cx="17.828694805829905" cy="4.1600829704642415" fx="17.828694805829905" fy="4.1600829704642415" r="18.3076114654541"><stop offset="0.0" stop-color="#6fa8dc"/><stop offset="1.0" stop-color="#0b5394"/></radialGradient></defs><path fill="url(#p.1)" d="m0 0l652.80164 0l0 121.857895l-326.40082 30.464478l-326.40082 -30.464478z" fill-rule="evenodd"/><g filter="url(#shadowFilter-p.2)"><use xlink:href="#p.2" transform="matrix(1.0 0.0 0.0 1.0 0.0 2.0)"/></g><defs><filter id="shadowFilter-p.2" filterUnits="userSpaceOnUse"><feGaussianBlur in="SourceAlpha" stdDeviation="2.0" result="blur"/><feComponentTransfer in="blur" color-interpolation-filters="sRGB"><feFuncR type="linear" slope="0" intercept="0.0"/><feFuncG type="linear" slope="0" intercept="0.0"/><feFuncB type="linear" slope="0" intercept="0.0"/><feFuncA type="linear" slope="0.5" intercept="0"/></feComponentTransfer></filter></defs><g id="p.2"><path fill="#000000" fill-opacity="0.0" d="m10.041583 9.937883l632.4018 0l0 102.9413l-316.2009 25.735321l-316.20087 -25.735321z" fill-rule="evenodd"/><path fill="#eeece1" d="m133.56892 90.4429q-3.921875 0 -7.015625 -1.46875q-3.078125 -1.484375 -5.203125 -4.15625q-2.109375 -2.6875 -3.1875 -6.203125q-1.078125 -3.53125 -1.078125 -7.609375q0.078125 -4.078125 1.1875 -7.640625q1.125 -3.5625 3.25 -6.203125q2.125 -2.640625 5.15625 -4.15625q3.046875 -1.515625 6.890625 -1.515625q3.671875 0 6.90625 1.515625q3.25 1.515625 5.765625 4.25q2.515625 2.71875 3.953125 6.28125q1.453125 3.546875 1.453125 7.625q0 4.171875 -1.453125 7.6875q-1.4375 3.515625 -3.921875 6.125q-2.46875 2.59375 -5.75 4.03125q-3.28125 1.4375 -6.953125 1.4375zm-16.0 16.640625q-2.171875 0 -3.21875 -0.640625q-1.03125 -0.640625 -1.265625 -1.6875q-0.234375 -1.03125 -0.234375 -2.390625l0 -46.0q0 -1.359375 0.234375 -2.390625q0.234375 -1.046875 1.234375 -1.71875q1.0 -0.6875 3.15625 -0.6875q2.09375 0 3.28125 0.640625q1.203125 0.640625 1.609375 2.15625l0 47.921875q0.078125 1.359375 -0.203125 2.4375q-0.28125 1.078125 -1.328125 1.71875q-1.03125 0.640625 -3.265625 0.640625zm14.71875 -25.59375q2.796875 0 5.03125 -1.3125q2.25 -1.328125 3.5625 -3.6875q1.328125 -2.359375 1.328125 -5.328125q0 -3.03125 -1.328125 -5.34375q-1.3125 -2.328125 -3.5625 -3.640625q-2.234375 -1.328125 -5.03125 -1.328125q-2.71875 0 -4.96875 1.359375q-2.234375 1.359375 -3.5625 3.640625q-1.3125 2.28125 -1.3125 5.3125q0 2.96875 1.3125 5.328125q1.328125 2.359375 3.5625 3.6875q2.25 1.3125 4.96875 1.3125zm31.196213 9.515625q-2.15625 0 -3.203125 -0.6875q-1.03125 -0.671875 -1.28125 -1.75q-0.234375 -1.078125 -0.234375 -2.4375l0 -29.765625q0 -1.28125 0.28125 -2.359375q0.28125 -1.078125 1.28125 -1.71875q1.0 -0.640625 3.234375 -0.640625q2.234375 0 3.234375 0.640625q1.0 0.640625 1.234375 1.765625q0.25 1.109375 0.25 2.46875l0 29.6875q0 1.359375 -0.25 2.4375q-0.234375 1.078125 -1.234375 1.71875q-1.0 0.640625 -3.3125 0.640625zm0 -47.109375q-2.328125 0 -3.40625 -0.6875q-1.078125 -0.6875 -1.359375 -1.875q-0.28125 -1.203125 -0.28125 -2.640625q0 -1.53125 0.28125 -2.640625q0.28125 -1.125 1.40625 -1.796875q1.125 -0.6875 3.4375 -0.6875q2.40625 0 3.4375 0.71875q1.046875 0.71875 1.359375 1.890625q0.328125 1.15625 0.328125 2.671875q0 1.359375 -0.328125 2.5625q-0.3125 1.203125 -1.359375 1.84375q-1.03125 0.640625 -3.515625 0.640625zm30.961853 47.265625q-3.84375 0 -7.484375 -1.3125q-3.640625 -1.328125 -6.5625 -3.875q-2.921875 -2.5625 -4.640625 -6.28125q-1.71875 -3.71875 -1.71875 -8.4375q0 -4.734375 1.71875 -8.40625q1.71875 -3.6875 4.59375 -6.234375q2.890625 -2.5625 6.484375 -3.921875q3.609375 -1.359375 7.453125 -1.359375q2.796875 0 5.3125 0.796875q2.515625 0.796875 4.359375 1.921875q1.84375 1.109375 2.640625 2.234375q1.046875 0.96875 1.765625 1.84375q0.71875 0.875 0.46875 2.15625q-0.234375 0.796875 -0.71875 1.484375q-0.46875 0.671875 -1.1875 1.390625q-1.921875 2.171875 -3.765625 1.609375q-1.046875 -0.5625 -2.09375 -1.203125q-1.03125 -0.640625 -2.109375 -1.234375q-1.078125 -0.609375 -2.203125 -1.0q-1.109375 -0.40625 -2.46875 -0.40625q-3.046875 0 -5.40625 1.328125q-2.359375 1.3125 -3.6875 3.640625q-1.3125 2.3125 -1.3125 5.359375q0 3.03125 1.3125 5.390625q1.328125 2.359375 3.640625 3.6875q2.328125 1.3125 5.28125 1.3125q1.4375 0 2.75 -0.359375q1.328125 -0.359375 2.375 -0.953125q1.046875 -0.609375 1.6875 -1.25q0.875 -0.5625 1.59375 -1.03125q0.71875 -0.484375 1.515625 -0.484375q0.96875 0 1.875 0.6875q0.921875 0.671875 2.046875 2.109375q1.046875 1.203125 1.15625 2.328125q0.125 1.109375 -0.484375 2.15625q-0.59375 1.046875 -1.953125 1.921875q-0.953125 0.953125 -2.84375 1.953125q-1.875 1.0 -4.3125 1.71875q-2.4375 0.71875 -5.078125 0.71875zm52.872467 -8.796875q2.078125 1.765625 2.203125 3.28125q0.125 1.515625 -1.640625 3.515625q-1.359375 1.53125 -2.40625 2.0q-1.03125 0.484375 -2.078125 0.046875q-1.03125 -0.4375 -2.46875 -1.640625l-15.28125 -12.875l0 9.515625q0 1.28125 -0.28125 2.40625q-0.28125 1.109375 -1.28125 1.75q-1.0 0.640625 -3.234375 0.640625q-2.25 0 -3.25 -0.6875q-1.0 -0.671875 -1.25 -1.78125q-0.234375 -1.125 -0.234375 -2.40625l0 -47.765625q0 -1.359375 0.28125 -2.4375q0.28125 -1.078125 1.28125 -1.75q1.0 -0.6875 3.25 -0.6875q2.234375 0 3.1875 0.6875q0.96875 0.671875 1.25 1.75q0.28125 1.078125 0.28125 2.515625l0 26.25l11.03125 -10.71875q1.28125 -1.203125 2.40625 -1.640625q1.125 -0.4375 2.203125 -0.078125q1.078125 0.359375 2.28125 1.71875q2.0 2.15625 1.90625 3.5625q-0.078125 1.390625 -1.984375 3.3125l-10.8125 10.0l14.640625 11.515625zm9.291229 -8.15625q-1.0468903 0 -2.0468903 -0.234375q-1.0 -0.25 -1.609375 -1.203125q-0.59375 -0.96875 -0.59375 -3.125q0 -2.078125 0.59375 -3.0q0.609375 -0.921875 1.609375 -1.203125q1.0 -0.28125 1.9531403 -0.28125l19.921875 0q1.046875 0 2.0 0.28125q0.96875 0.28125 1.5625 1.203125q0.609375 0.921875 0.609375 3.078125q0 2.078125 -0.609375 3.046875q-0.59375 0.953125 -1.5625 1.203125q-0.953125 0.234375 -2.078125 0.234375l-19.75 0zm52.799347 16.234375q-3.921875 0 -7.015625 -1.46875q-3.078125 -1.484375 -5.203125 -4.15625q-2.109375 -2.6875 -3.1875 -6.203125q-1.078125 -3.53125 -1.078125 -7.609375q0.078125 -4.078125 1.1875 -7.640625q1.125 -3.5625 3.25 -6.203125q2.125 -2.640625 5.15625 -4.15625q3.046875 -1.515625 6.890625 -1.515625q3.671875 0 6.90625 1.515625q3.25 1.515625 5.765625 4.25q2.515625 2.71875 3.953125 6.28125q1.453125 3.546875 1.453125 7.625q0 4.171875 -1.453125 7.6875q-1.4375 3.515625 -3.921875 6.125q-2.46875 2.59375 -5.75 4.03125q-3.28125 1.4375 -6.953125 1.4375zm-16.0 16.640625q-2.171875 0 -3.21875 -0.640625q-1.03125 -0.640625 -1.265625 -1.6875q-0.234375 -1.03125 -0.234375 -2.390625l0 -46.0q0 -1.359375 0.234375 -2.390625q0.234375 -1.046875 1.234375 -1.71875q1.0 -0.6875 3.15625 -0.6875q2.09375 0 3.28125 0.640625q1.203125 0.640625 1.609375 2.15625l0 47.921875q0.078125 1.359375 -0.203125 2.4375q-0.28125 1.078125 -1.328125 1.71875q-1.03125 0.640625 -3.265625 0.640625zm14.71875 -25.59375q2.796875 0 5.03125 -1.3125q2.25 -1.328125 3.5625 -3.6875q1.328125 -2.359375 1.328125 -5.328125q0 -3.03125 -1.328125 -5.34375q-1.3125 -2.328125 -3.5625 -3.640625q-2.234375 -1.328125 -5.03125 -1.328125q-2.71875 0 -4.96875 1.359375q-2.234375 1.359375 -3.5625 3.640625q-1.3125 2.28125 -1.3125 5.3125q0 2.96875 1.3125 5.328125q1.328125 2.359375 3.5625 3.6875q2.25 1.3125 4.96875 1.3125zm44.477478 10.0q-3.84375 0 -7.484375 -1.484375q-3.640625 -1.484375 -6.5625 -4.203125q-2.921875 -2.71875 -4.640625 -6.390625q-1.71875 -3.6875 -1.71875 -8.078125q0 -4.25 1.59375 -7.921875q1.609375 -3.6875 4.40625 -6.484375q2.796875 -2.796875 6.4375 -4.359375q3.640625 -1.5625 7.8125 -1.5625q5.59375 0 10.15625 2.6875q4.5625 2.671875 7.28125 7.234375q2.71875 4.5625 2.71875 10.328125q0 4.546875 -1.6875 8.28125q-1.671875 3.71875 -4.5625 6.40625q-2.875 2.671875 -6.4375 4.109375q-3.5625 1.4375 -7.3125 1.4375zm-0.15625 -9.4375q2.640625 0 5.078125 -1.3125q2.4375 -1.328125 4.0 -3.8125q1.5625 -2.484375 1.5625 -5.84375q0 -3.109375 -1.40625 -5.515625q-1.40625 -2.40625 -3.8125 -3.765625q-2.390625 -1.359375 -5.515625 -1.359375q-2.953125 0 -5.359375 1.40625q-2.390625 1.40625 -3.796875 3.84375q-1.390625 2.4375 -1.390625 5.46875q0 3.359375 1.515625 5.8125q1.515625 2.4375 3.953125 3.765625q2.453125 1.3125 5.171875 1.3125zm45.516815 9.109375q-3.84375 0 -7.484375 -1.3125q-3.640625 -1.328125 -6.5625 -3.875q-2.921875 -2.5625 -4.640625 -6.28125q-1.71875 -3.71875 -1.71875 -8.4375q0 -4.734375 1.71875 -8.40625q1.71875 -3.6875 4.59375 -6.234375q2.890625 -2.5625 6.484375 -3.921875q3.609375 -1.359375 7.453125 -1.359375q2.796875 0 5.3125 0.796875q2.515625 0.796875 4.359375 1.921875q1.84375 1.109375 2.640625 2.234375q1.046875 0.96875 1.765625 1.84375q0.71875 0.875 0.46875 2.15625q-0.234375 0.796875 -0.71875 1.484375q-0.46875 0.671875 -1.1875 1.390625q-1.921875 2.171875 -3.765625 1.609375q-1.046875 -0.5625 -2.09375 -1.203125q-1.03125 -0.640625 -2.109375 -1.234375q-1.078125 -0.609375 -2.203125 -1.0q-1.109375 -0.40625 -2.46875 -0.40625q-3.046875 0 -5.40625 1.328125q-2.359375 1.3125 -3.6875 3.640625q-1.3125 2.3125 -1.3125 5.359375q0 3.03125 1.3125 5.390625q1.328125 2.359375 3.640625 3.6875q2.328125 1.3125 5.28125 1.3125q1.4375 0 2.75 -0.359375q1.328125 -0.359375 2.375 -0.953125q1.046875 -0.609375 1.6875 -1.25q0.875 -0.5625 1.59375 -1.03125q0.71875 -0.484375 1.515625 -0.484375q0.96875 0 1.875 0.6875q0.921875 0.671875 2.046875 2.109375q1.046875 1.203125 1.15625 2.328125q0.125 1.109375 -0.484375 2.15625q-0.59375 1.046875 -1.953125 1.921875q-0.953125 0.953125 -2.84375 1.953125q-1.875 1.0 -4.3125 1.71875q-2.4375 0.71875 -5.078125 0.71875zm52.872467 -8.796875q2.078125 1.765625 2.203125 3.28125q0.125 1.515625 -1.640625 3.515625q-1.359375 1.53125 -2.40625 2.0q-1.03125 0.484375 -2.078125 0.046875q-1.03125 -0.4375 -2.46875 -1.640625l-15.28125 -12.875l0 9.515625q0 1.28125 -0.28125 2.40625q-0.28125 1.109375 -1.28125 1.75q-1.0 0.640625 -3.234375 0.640625q-2.25 0 -3.25 -0.6875q-1.0 -0.671875 -1.25 -1.78125q-0.234375 -1.125 -0.234375 -2.40625l0 -47.765625q0 -1.359375 0.28125 -2.4375q0.28125 -1.078125 1.28125 -1.75q1.0 -0.6875 3.25 -0.6875q2.234375 0 3.1875 0.6875q0.96875 0.671875 1.25 1.75q0.28125 1.078125 0.28125 2.515625l0 26.25l11.03125 -10.71875q1.28125 -1.203125 2.40625 -1.640625q1.125 -0.4375 2.203125 -0.078125q1.078125 0.359375 2.28125 1.71875q2.0 2.15625 1.90625 3.5625q-0.078125 1.390625 -1.984375 3.3125l-10.8125 10.0l14.640625 11.515625zm25.047485 9.125q-5.203125 0 -9.09375 -1.671875q-3.875 -1.6875 -6.46875 -4.609375q-2.59375 -2.921875 -3.921875 -6.5625q-1.3125 -3.640625 -1.3125 -7.5625q0 -5.75 2.640625 -10.234375q2.640625 -4.484375 7.3125 -7.03125q4.6875 -2.5625 10.765625 -2.5625q4.3125 0 7.59375 1.359375q3.28125 1.359375 5.484375 3.5625q2.203125 2.1875 3.359375 4.828125q1.15625 2.640625 1.15625 5.125q0 4.234375 -2.046875 6.15625q-2.03125 1.921875 -5.078125 1.921875l-21.109375 0q0.078125 2.71875 1.71875 4.71875q1.640625 2.0 4.15625 3.078125q2.515625 1.078125 5.15625 1.078125q2.0 0 3.5625 -0.234375q1.5625 -0.234375 2.671875 -0.59375q1.125 -0.359375 1.96875 -0.765625q0.84375 -0.40625 1.5625 -0.71875q0.71875 -0.328125 1.359375 -0.40625q0.875 -0.078125 1.75 0.40625q0.890625 0.484375 1.453125 1.671875q0.46875 0.8125 0.671875 1.5q0.203125 0.671875 0.203125 1.3125q0 1.59375 -1.921875 3.0q-1.921875 1.390625 -5.40625 2.3125q-3.46875 0.921875 -8.1875 0.921875zm-10.71875 -22.96875l16.390625 0q1.359375 0 2.078125 -0.4375q0.734375 -0.4375 0.734375 -1.875q0 -1.84375 -1.125 -3.3125q-1.125 -1.484375 -3.046875 -2.328125q-1.921875 -0.84375 -4.46875 -0.84375q-2.96875 0 -5.375 1.171875q-2.390625 1.15625 -3.796875 3.15625q-1.390625 2.0 -1.390625 4.46875zm53.42929 22.484375q-3.90625 0 -6.7187195 -0.796875q-2.796875 -0.796875 -4.5625 -2.46875q-1.75 -1.6875 -2.59375 -4.359375q-0.84375 -2.6875 -0.84375 -6.375l0 -33.921875q0 -1.4375 0.28125 -2.46875q0.28125 -1.046875 1.28125 -1.640625q1.0 -0.609375 3.15625 -0.609375q2.25 0 3.25 0.640625q0.9999695 0.640625 1.2812195 1.71875q0.28125 1.078125 0.28125 2.359375l0 33.609375q0 1.671875 0.265625 2.71875q0.28125 1.03125 0.875 1.5625q0.609375 0.515625 1.609375 0.71875q1.0 0.203125 2.4375 0.203125q1.53125 0 2.609375 0.234375q1.078125 0.234375 1.640625 1.15625q0.5625 0.921875 0.5625 3.0q0 2.234375 -0.6875 3.234375q-0.671875 1.0 -1.765625 1.234375q-1.078125 0.25 -2.359375 0.25zm-17.99997 -38.640625l8.25 0.078125l11.0312195 -0.3125q1.359375 0 2.4375 0.28125q1.09375 0.28125 1.734375 1.28125q0.640625 1.0 0.640625 3.234375q0 2.078125 -0.640625 3.125q-0.640625 1.03125 -1.6875 1.3125q-1.046875 0.28125 -2.40625 0.28125l-10.7187195 -0.15625l-8.875 0.078125q-2.0 -0.078125 -2.765625 -1.15625q-0.75 -1.078125 -0.75 -3.5625q0 -2.328125 0.921875 -3.40625q0.921875 -1.078125 2.828125 -1.078125z" fill-rule="nonzero"/></g><g filter="url(#shadowFilter-p.3)"><use xlink:href="#p.3" transform="matrix(1.0 0.0 0.0 1.0 0.0 2.0)"/></g><defs><filter id="shadowFilter-p.3" filterUnits="userSpaceOnUse"><feGaussianBlur in="SourceAlpha" stdDeviation="2.0" result="blur"/><feComponentTransfer in="blur" color-interpolation-filters="sRGB"><feFuncR type="linear" slope="0" intercept="0.0"/><feFuncG type="linear" slope="0" intercept="0.0"/><feFuncB type="linear" slope="0" intercept="0.0"/><feFuncA type="linear" slope="0.5" intercept="0"/></feComponentTransfer></filter></defs><g id="p.3"><path fill="#000000" fill-opacity="0.0" d="m511.68 22.08l39.77954 0l0 30.86614l-39.77954 0z" fill-rule="evenodd"/><path fill="#eeece1" d="m528.9492 32.326195q0.234375 0 0.421875 0.0625q0.1875 0.046875 0.296875 0.234375q0.109375 0.171875 0.109375 0.578125q0 0.390625 -0.109375 0.578125q-0.109375 0.1875 -0.3125 0.234375q-0.1875 0.03125 -0.421875 0.03125l-2.953125 0l0 8.53125q0 0.265625 -0.0625 0.484375q-0.046875 0.21875 -0.25 0.34375q-0.1875 0.125 -0.65625 0.125q-0.4375 0 -0.640625 -0.140625q-0.203125 -0.125 -0.265625 -0.34375q-0.046875 -0.21875 -0.046875 -0.484375l0 -8.515625l-2.96875 0q-0.21875 0 -0.421875 -0.046875q-0.1875 -0.046875 -0.3125 -0.21875q-0.109375 -0.1875 -0.109375 -0.578125q0 -0.40625 0.109375 -0.578125q0.109375 -0.1875 0.3125 -0.234375q0.203125 -0.0625 0.421875 -0.0625l7.859375 0zm3.1522827 11.1875q-0.421875 0 -0.625 -0.125q-0.203125 -0.125 -0.265625 -0.34375q-0.0625 -0.234375 -0.0625 -0.5l0 -9.234375q0 -0.25 0.0625 -0.46875q0.0625 -0.21875 0.265625 -0.359375q0.203125 -0.140625 0.65625 -0.140625q0.328125 0 0.5 0.046875q0.171875 0.046875 0.265625 0.125q0.09375 0.0625 0.1875 0.171875l3.90625 5.453125l-0.359375 0l3.90625 -5.46875q0.125 -0.125 0.234375 -0.1875q0.109375 -0.0625 0.28125 -0.09375q0.171875 -0.046875 0.46875 -0.046875q0.4375 0 0.640625 0.140625q0.203125 0.140625 0.25 0.375q0.0625 0.21875 0.0625 0.484375l0 9.234375q0 0.234375 -0.0625 0.46875q-0.046875 0.21875 -0.25 0.34375q-0.203125 0.125 -0.65625 0.125q-0.4375 0 -0.640625 -0.140625q-0.203125 -0.125 -0.265625 -0.34375q-0.0625 -0.234375 -0.0625 -0.484375l0 -6.875l-2.90625 4.21875q-0.046875 0.0625 -0.140625 0.171875q-0.09375 0.09375 -0.265625 0.171875q-0.15625 0.078125 -0.421875 0.078125q-0.265625 0 -0.421875 -0.078125q-0.15625 -0.078125 -0.25 -0.171875q-0.078125 -0.09375 -0.15625 -0.1875l-2.90625 -4.203125l0 6.90625q0 0.234375 -0.0625 0.46875q-0.046875 0.21875 -0.265625 0.34375q-0.203125 0.125 -0.640625 0.125z" fill-rule="nonzero"/></g></g></svg>